<svg width="24" height="24" viewBox="0 0 24 24" fill="none" xmlns="http://www.w3.org/2000/svg">
<path fill-rule="evenodd" clip-rule="evenodd" d="M7.41211 5.54102C7.41211 5.1268 7.07632 4.79102 6.66211 4.79102C6.2479 4.79102 5.91211 5.1268 5.91211 5.54102V11.4414C5.91211 12.9602 7.14333 14.1914 8.66211 14.1914H19.3815L16.4389 17.5018C16.1637 17.8114 16.1916 18.2855 16.5011 18.5607C16.8107 18.8359 17.2848 18.808 17.56 18.4984L21.56 13.9984C21.8126 13.7142 21.8126 13.286 21.56 13.0018L17.56 8.50185C17.2848 8.19226 16.8107 8.16438 16.5011 8.43957C16.1916 8.71475 16.1637 9.18881 16.4389 9.49839L19.2771 12.6914H8.66211C7.97175 12.6914 7.41211 12.1317 7.41211 11.4414V5.54102Z" fill="#959595"/>
</svg>
