<svg width="16" height="16" viewBox="0 0 16 16" fill="none" xmlns="http://www.w3.org/2000/svg">
<path fill-rule="evenodd" clip-rule="evenodd" d="M2.91092 4.57778C2.89031 4.49655 2.91399 4.41048 2.97324 4.35122L4.21134 3.11313L4.21134 3.11315L4.95888 2.36561C5.3494 1.97509 5.98257 1.97509 6.37309 2.36561L7.92138 3.9139C8.36109 4.3536 8.29712 5.08374 7.78766 5.44029L5.84583 6.79931C6.76914 8.18894 7.97375 9.37258 9.38098 10.2715L10.5799 8.31644C10.918 7.76525 11.6823 7.67491 12.1395 8.13211L13.634 9.62663C14.0246 10.0172 14.0246 10.6503 13.634 11.0408L11.8625 12.8124L11.6485 13.0264C11.5892 13.0857 11.5031 13.1094 11.4219 13.0888C7.23878 12.0272 3.97244 8.7609 2.91092 4.57778Z" fill="#22F779"/>
</svg>
