<svg width="24" height="24" viewBox="0 0 24 24" fill="none" xmlns="http://www.w3.org/2000/svg">
<path d="M10.9041 1.17254C11.497 0.538182 12.503 0.538182 13.0959 1.17254L14.9788 3.18715C15.2745 3.50354 15.6925 3.67669 16.1253 3.66206L18.8813 3.56893C19.7491 3.5396 20.4604 4.25094 20.4311 5.11873L20.3379 7.87468C20.3233 8.3075 20.4965 8.72552 20.8128 9.02123L22.8275 10.9041C23.4618 11.497 23.4618 12.503 22.8275 13.0959L20.8128 14.9788C20.4965 15.2745 20.3233 15.6925 20.3379 16.1253L20.4311 18.8813C20.4604 19.7491 19.7491 20.4604 18.8813 20.4311L16.1253 20.3379C15.6925 20.3233 15.2745 20.4965 14.9788 20.8128L13.0959 22.8275C12.503 23.4618 11.497 23.4618 10.9041 22.8275L9.02123 20.8128C8.72552 20.4965 8.3075 20.3233 7.87468 20.3379L5.11874 20.4311C4.25094 20.4604 3.5396 19.7491 3.56893 18.8813L3.66206 16.1253C3.67669 15.6925 3.50354 15.2745 3.18715 14.9788L1.17254 13.0959C0.538182 12.503 0.538182 11.497 1.17254 10.9041L3.18715 9.02123C3.50354 8.72552 3.67669 8.3075 3.66206 7.87468L3.56893 5.11873C3.5396 4.25094 4.25094 3.5396 5.11873 3.56893L7.87468 3.66206C8.3075 3.67669 8.72552 3.50354 9.02123 3.18715L10.9041 1.17254Z" fill="url(#paint0_linear_2388_57903)"/>
<path d="M7.5 11.5L10.825 15L17 9" stroke="#005421" stroke-width="1.5" stroke-linecap="round" stroke-linejoin="round"/>
<defs>
<linearGradient id="paint0_linear_2388_57903" x1="2.67046e-07" y1="-1.69946" x2="18.3092" y2="19.2458" gradientUnits="userSpaceOnUse">
<stop stop-color="#00DE59"/>
<stop offset="1" stop-color="#73F6A7"/>
</linearGradient>
</defs>
</svg>
