<svg width="24" height="24" viewBox="0 0 24 24" fill="none" xmlns="http://www.w3.org/2000/svg">
<path fill-rule="evenodd" clip-rule="evenodd" d="M8.00082 5H9.22305C9.6526 5 10.0008 5.34822 10.0008 5.77778C10.0008 6.20733 9.6526 6.55556 9.22305 6.55556H8.39382C7.75097 6.55556 7.16997 6.93866 6.91674 7.52953L5.23957 11.4429C5.09473 11.7809 4.76243 12 4.39474 12C3.73488 12 3.28998 11.3253 3.54992 10.7188L5.21299 6.83829C5.69093 5.72308 6.78751 5 8.00082 5Z" fill="#07AB56"/>
<path fill-rule="evenodd" clip-rule="evenodd" d="M15.9992 5H14.777C14.3474 5 13.9992 5.34822 13.9992 5.77778C13.9992 6.20733 14.3474 6.55556 14.777 6.55556H15.6062C16.249 6.55556 16.83 6.93866 17.0833 7.52953L18.7604 11.4429C18.9053 11.7809 19.2376 12 19.6053 12C20.2651 12 20.71 11.3253 20.4501 10.7188L18.787 6.83829C18.3091 5.72308 17.2125 5 15.9992 5Z" fill="#07AB56"/>
<path fill-rule="evenodd" clip-rule="evenodd" d="M3 11C2.44772 11 2 11.4477 2 12V12.5C2 12.7761 2.22386 13 2.5 13H2.57692L2.85795 16.6534C2.93811 17.6954 3.80699 18.5 4.85206 18.5H9.14794C10.193 18.5 11.0619 17.6954 11.142 16.6534L11.3267 14.2524C11.7686 14.1446 12.2314 14.1446 12.6733 14.2524L12.858 16.6534C12.9381 17.6954 13.807 18.5 14.8521 18.5H19.1479C20.193 18.5 21.0619 17.6954 21.142 16.6534L21.4231 13H21.5C21.7761 13 22 12.7761 22 12.5V12C22 11.4477 21.5523 11 21 11H3Z" fill="url(#paint0_linear_1054_17159)"/>
<path opacity="0.8" fill-rule="evenodd" clip-rule="evenodd" d="M19 12.5H16.5C16.2239 12.5 16 12.7239 16 13C16 13.2761 16.2239 13.5 16.5 13.5H18C18.5523 13.5 19 13.9477 19 14.5V15C19 15.2761 19.2239 15.5 19.5 15.5C19.7761 15.5 20 15.2761 20 15V13.5C20 12.9477 19.5523 12.5 19 12.5Z" fill="#F0FFF4"/>
<defs>
<linearGradient id="paint0_linear_1054_17159" x1="2" y1="14.75" x2="22" y2="14.75" gradientUnits="userSpaceOnUse">
<stop stop-color="#22F779"/>
<stop offset="1" stop-color="#75FFA5"/>
</linearGradient>
</defs>
</svg>
