<svg width="24" height="24" viewBox="0 0 24 24" fill="none" xmlns="http://www.w3.org/2000/svg">
<path fill-rule="evenodd" clip-rule="evenodd" d="M18.1992 6H17C16.4477 6 16 6.44772 16 7C16 7.55228 16.4477 8 17 8H17.0996C17.7069 8 18.1992 8.49231 18.1992 9.09961V16.1C18.1992 16.5971 18.6022 17 19.0992 17C19.5963 17 19.9992 16.5971 19.9992 16.1V8.00039C19.9992 8.00017 19.9994 8 19.9996 8C19.9998 8 20 7.99983 20 7.99961V6.00078C20 6.00035 19.9997 6 19.9992 6H18.1992Z" fill="#07AB56"/>
<path fill-rule="evenodd" clip-rule="evenodd" d="M16.9666 4.03156C16.9844 3.46719 16.5318 3 15.9671 3H6.03126C5.46661 3 5.01394 3.46719 5.03176 4.03156L5.29245 12.2867C5.29689 12.4273 5.33096 12.5654 5.39244 12.692L6.89869 15.7931C6.96482 15.9293 6.99918 16.0786 6.99918 16.23V21C6.99918 21.5523 7.4469 22 7.99918 22H13.9992C14.5515 22 14.9992 21.5523 14.9992 21V16.23C14.9992 16.0786 15.0335 15.9293 15.0997 15.7931L16.6059 12.692C16.6674 12.5654 16.7015 12.4273 16.7059 12.2867L16.9666 4.03156Z" fill="url(#paint0_linear_1054_17153)"/>
<path d="M5 3C5 2.44772 5.44772 2 6 2H16C16.5523 2 17 2.44772 17 3V4H5V3Z" fill="#07AB56"/>
<defs>
<linearGradient id="paint0_linear_1054_17153" x1="5.03125" y1="12.5" x2="16.9671" y2="12.5" gradientUnits="userSpaceOnUse">
<stop stop-color="#22F779"/>
<stop offset="1" stop-color="#75FFA5"/>
</linearGradient>
</defs>
</svg>
