<svg width="24" height="24" viewBox="0 0 24 24" fill="none" xmlns="http://www.w3.org/2000/svg">
<path d="M2 14.6313H4.22222V21.9998H4C2.89543 21.9998 2 21.1043 2 19.9998V14.6313Z" fill="#07AB56"/>
<path d="M22 14.6313H19.7778V21.9998H20C21.1046 21.9998 22 21.1043 22 19.9998V14.6313Z" fill="#07AB56"/>
<path fill-rule="evenodd" clip-rule="evenodd" d="M8.66797 4C8.66797 2.89543 9.5634 2 10.668 2H13.3346C14.4392 2 15.3346 2.89543 15.3346 4V4.30911C17.8938 4.99459 19.7782 7.32986 19.7782 10.1053V22H4.22266V10.1053C4.22266 7.32924 6.10792 4.99353 8.66797 4.30864V4ZM10.0567 4.10751C10.1119 4.10602 10.1672 4.10526 10.2227 4.10526H13.7782C13.8342 4.10526 13.89 4.10603 13.9456 4.10755V4.05273C13.9456 3.50045 13.4979 3.05273 12.9456 3.05273H11.0567C10.5045 3.05273 10.0567 3.50045 10.0567 4.05273V4.10751Z" fill="url(#paint0_linear_1054_17160)"/>
<rect opacity="0.8" x="6.44531" y="12.5264" width="11.1111" height="7.36842" rx="1" fill="#13D168"/>
<path d="M6.44531 13.5264C6.44531 12.9741 6.89303 12.5264 7.44531 12.5264H16.5564C17.1087 12.5264 17.5564 12.9741 17.5564 13.5264V14.6316H6.44531V13.5264Z" fill="#07AB56"/>
<rect x="7.55469" y="8.31592" width="8.88889" height="1.57895" fill="#07AB56"/>
<defs>
<linearGradient id="paint0_linear_1054_17160" x1="4.22266" y1="12" x2="19.7782" y2="12" gradientUnits="userSpaceOnUse">
<stop stop-color="#22F779"/>
<stop offset="1" stop-color="#75FFA5"/>
</linearGradient>
</defs>
</svg>
