<svg width="24" height="24" viewBox="0 0 24 24" fill="none" xmlns="http://www.w3.org/2000/svg">
<path fill-rule="evenodd" clip-rule="evenodd" d="M10 22C11.6569 22 13 20.6569 13 19L13 12H11L11 18V19C11 19.5523 10.5523 20 10 20C9.44772 20 9 19.5523 9 19V18L7 18V19C7 20.6569 8.34315 22 10 22Z" fill="#07AB56"/>
<path d="M2 13C2 7.47715 6.47715 3 12 3C17.5228 3 22 7.47715 22 13H2Z" fill="url(#paint0_linear_1054_17158)"/>
<path opacity="0.8" fill-rule="evenodd" clip-rule="evenodd" d="M10.9685 3.05256C11.3076 3.01781 11.6517 3 12 3C12.3483 3 12.6924 3.01781 13.0315 3.05256L13.4275 3.71254C15.1108 6.51803 16 9.72826 16 13H8C8 9.72826 8.88918 6.51803 10.5725 3.71254L10.9685 3.05256Z" fill="#13D168"/>
<path d="M11 2.5C11 2.22386 11.2239 2 11.5 2H12.5C12.7761 2 13 2.22386 13 2.5V3H11V2.5Z" fill="#07AB56"/>
<defs>
<linearGradient id="paint0_linear_1054_17158" x1="2" y1="8" x2="22" y2="8" gradientUnits="userSpaceOnUse">
<stop stop-color="#22F779"/>
<stop offset="1" stop-color="#75FFA5"/>
</linearGradient>
</defs>
</svg>
