<svg width="24" height="24" viewBox="0 0 24 24" fill="none" xmlns="http://www.w3.org/2000/svg">
<path d="M4 12C4 7.58172 7.58172 4 12 4C16.4183 4 20 7.58172 20 12V14H4V12Z" fill="url(#paint0_linear_1054_17157)"/>
<path d="M9.5 4.40909C11.1149 3.82184 12.8851 3.82184 14.5 4.40909C15.4901 6.77945 16 9.32276 16 11.8916V13.5H8V11.8916C8 9.32276 8.50985 6.77945 9.5 4.40909Z" fill="#13D168"/>
<path d="M4 14C9.15796 12.0658 14.842 12.0658 20 14L21.3954 18.1862C21.6341 18.9024 20.9258 19.5703 20.2249 19.2899C14.945 17.178 9.05502 17.178 3.77514 19.2899C3.07421 19.5703 2.36586 18.9024 2.60459 18.1862L4 14Z" fill="#07AB56"/>
<defs>
<linearGradient id="paint0_linear_1054_17157" x1="4" y1="9" x2="20" y2="9" gradientUnits="userSpaceOnUse">
<stop stop-color="#22F779"/>
<stop offset="1" stop-color="#75FFA5"/>
</linearGradient>
</defs>
</svg>
