<svg width="24" height="24" viewBox="0 0 24 24" fill="none" xmlns="http://www.w3.org/2000/svg">
<path d="M5 4H19C20.3131 9.25251 20.3131 14.7475 19 20H5C3.68687 14.7475 3.68687 9.25251 5 4Z" fill="url(#paint0_linear_1054_17161)"/>
<path d="M4.3618 2.72361C4.19558 2.39116 4.43733 2 4.80902 2H19.191C19.5627 2 19.8044 2.39116 19.6382 2.72361L19 4H5L4.3618 2.72361Z" fill="#07AB56"/>
<path d="M5 20H19L19.6382 21.2764C19.8044 21.6088 19.5627 22 19.191 22H4.80902C4.43733 22 4.19558 21.6088 4.3618 21.2764L5 20Z" fill="#07AB56"/>
<path fill-rule="evenodd" clip-rule="evenodd" d="M12.9319 10.3813C13.4372 10.5167 13.9491 10.446 14.3785 10.2207C14.5604 10.6049 14.9036 10.9098 15.3464 11.0284C15.8893 11.1739 16.4425 11.0021 16.809 10.6266C16.9334 11.063 17 11.5237 17 12C17 14.7614 14.7614 17 12 17C9.23858 17 7 14.7614 7 12C7 9.23858 9.23858 7 12 7C12.0235 7 12.0471 7.00016 12.0705 7.00049C11.8124 7.24566 11.6165 7.56281 11.5176 7.93185C11.2318 8.99878 11.8649 10.0955 12.9319 10.3813Z" fill="#07AB56"/>
<rect x="9" y="10.5" width="1.5" height="1.5" rx="0.5" fill="#75FFA5"/>
<rect x="10" y="13" width="1" height="1" rx="0.25" fill="#75FFA5"/>
<rect x="12" y="12" width="1" height="1" rx="0.25" fill="#75FFA5"/>
<rect x="13" y="14" width="1" height="1" rx="0.25" fill="#75FFA5"/>
<defs>
<linearGradient id="paint0_linear_1054_17161" x1="3" y1="12" x2="21" y2="12" gradientUnits="userSpaceOnUse">
<stop stop-color="#22F779"/>
<stop offset="1" stop-color="#75FFA5"/>
</linearGradient>
</defs>
</svg>
