<svg width="24" height="24" viewBox="0 0 24 24" fill="none" xmlns="http://www.w3.org/2000/svg">
<path fill-rule="evenodd" clip-rule="evenodd" d="M16.5 5C16.5 3.89543 15.6046 3 14.5 3H9.5C8.39543 3 7.5 3.89543 7.5 5V6.4C7.5 7.50457 8.39543 8.4 9.5 8.4H14.5C15.6046 8.4 16.5 7.50457 16.5 6.4V5ZM9.80078 4.7998C9.52464 4.7998 9.30078 5.02366 9.30078 5.2998V6.3998C9.30078 7.50437 10.1962 8.3998 11.3008 8.3998H12.7008C13.8054 8.3998 14.7008 7.50437 14.7008 6.3998V5.2998C14.7008 5.02366 14.4769 4.7998 14.2008 4.7998H9.80078Z" fill="#07AB56"/>
<rect x="3" y="6.6001" width="18" height="12.6" rx="2" fill="url(#paint0_linear_1054_17156)"/>
<path d="M4.80078 19.2002H8.40078V20.0002C8.40078 20.5525 7.95307 21.0002 7.40078 21.0002H5.80078C5.2485 21.0002 4.80078 20.5525 4.80078 20.0002V19.2002Z" fill="#07AB56"/>
<path d="M15.5996 19.2002H19.1996V20.0002C19.1996 20.5525 18.7519 21.0002 18.1996 21.0002H16.5996C16.0473 21.0002 15.5996 20.5525 15.5996 20.0002V19.2002Z" fill="#07AB56"/>
<path fill-rule="evenodd" clip-rule="evenodd" d="M13.3504 9.60029C13.3504 9.43461 13.2161 9.30029 13.0504 9.30029H10.9504C10.7847 9.30029 10.6504 9.43461 10.6504 9.60029V11.2503C10.6504 11.416 10.5161 11.5503 10.3504 11.5503H8.70039C8.53471 11.5503 8.40039 11.6846 8.40039 11.8503V13.9503C8.40039 14.116 8.53471 14.2503 8.70039 14.2503H10.3504C10.5161 14.2503 10.6504 14.3846 10.6504 14.5503V16.2003C10.6504 16.366 10.7847 16.5003 10.9504 16.5003H13.0504C13.2161 16.5003 13.3504 16.366 13.3504 16.2003V14.5503C13.3504 14.3846 13.4847 14.2503 13.6504 14.2503H15.3004C15.4661 14.2503 15.6004 14.116 15.6004 13.9503V11.8503C15.6004 11.6846 15.4661 11.5503 15.3004 11.5503H13.6504C13.4847 11.5503 13.3504 11.416 13.3504 11.2503V9.60029Z" fill="#07AB56"/>
<defs>
<linearGradient id="paint0_linear_1054_17156" x1="3" y1="12.9001" x2="21" y2="12.9001" gradientUnits="userSpaceOnUse">
<stop stop-color="#22F779"/>
<stop offset="1" stop-color="#75FFA5"/>
</linearGradient>
</defs>
</svg>
