<svg width="24" height="24" viewBox="0 0 24 24" fill="none" xmlns="http://www.w3.org/2000/svg">
<path fill-rule="evenodd" clip-rule="evenodd" d="M20.9996 3.8999H11.9996V9.2999C11.9996 10.7911 10.7908 11.9999 9.29961 11.9999L9.27762 12.0585C5.73678 12.5113 3 15.5361 3 19.2H12V19.1999H20.9996V3.8999Z" fill="url(#paint0_linear_1054_17155)"/>
<path d="M3 19.2002H12V20.0002C12 20.5525 11.5523 21.0002 11 21.0002H4C3.44772 21.0002 3 20.5525 3 20.0002V19.2002Z" fill="#07AB56"/>
<path d="M15.5996 19.2002H20.9996V20.0002C20.9996 20.5525 20.5519 21.0002 19.9996 21.0002H16.5996C16.0473 21.0002 15.5996 20.5525 15.5996 20.0002V19.2002Z" fill="#07AB56"/>
<path opacity="0.8" fill-rule="evenodd" clip-rule="evenodd" d="M12.0001 3.8999H14.7001V9.2999C14.7001 12.2822 12.2825 14.6999 9.30011 14.6999V11.9999C10.7913 11.9999 12.0001 10.7911 12.0001 9.2999V3.8999ZM4.63281 14.7002C5.78384 13.2971 7.42381 12.3126 9.29943 12V14.7L9.29914 14.7002H4.63281Z" fill="#13D168"/>
<rect x="11.0996" y="6.1499" width="3.6" height="1.17" rx="0.585" fill="#07AB56"/>
<rect x="11.2285" y="8.8501" width="3.6" height="1.17" rx="0.585" transform="rotate(10 11.2285 8.8501)" fill="#07AB56"/>
<rect x="7.1582" y="12" width="3.15" height="1.17" rx="0.585" transform="rotate(45 7.1582 12)" fill="#07AB56"/>
<rect x="9.88477" y="10.8301" width="3.87" height="1.17" rx="0.585" transform="rotate(30 9.88477 10.8301)" fill="#07AB56"/>
<path d="M11.0996 3.9C11.0996 3.40294 11.5026 3 11.9996 3H19.9996C20.5519 3 20.9996 3.44772 20.9996 4V4.8H11.9996C11.5026 4.8 11.0996 4.39706 11.0996 3.9Z" fill="#07AB56"/>
<defs>
<linearGradient id="paint0_linear_1054_17155" x1="3" y1="11.55" x2="20.9996" y2="11.55" gradientUnits="userSpaceOnUse">
<stop stop-color="#22F779"/>
<stop offset="1" stop-color="#75FFA5"/>
</linearGradient>
</defs>
</svg>
