<svg width="24" height="24" viewBox="0 0 24 24" fill="none" xmlns="http://www.w3.org/2000/svg">
<path fill-rule="evenodd" clip-rule="evenodd" d="M11.2002 17.2C11.2002 17.6418 11.5584 18 12.0002 18C12.442 18 12.8002 17.6418 12.8002 17.2V12.7998H17.2C17.6418 12.7998 18 12.4416 18 11.9998C18 11.5579 17.6418 11.1998 17.2 11.1998H12.8002V6.8C12.8002 6.35817 12.442 6 12.0002 6C11.5584 6 11.2002 6.35817 11.2002 6.8V11.1998H6.8C6.35817 11.1998 6 11.5579 6 11.9998C6 12.4416 6.35817 12.7998 6.8 12.7998H11.2002V17.2Z" fill="#333333"/>
</svg>
