<svg width="24" height="24" viewBox="0 0 24 24" fill="none" xmlns="http://www.w3.org/2000/svg">
<path fill-rule="evenodd" clip-rule="evenodd" d="M2.27639 5.86184C2.107 5.94653 2 6.11966 2 6.30905V10.7056C2 11.3003 2.62585 11.6871 3.15777 11.4211L6 10V20C6 20.5523 6.44771 21 7 21H17C17.5523 21 18 20.5523 18 20V10L20.8422 11.4211C21.3741 11.6871 22 11.3003 22 10.7056V6.30905C22 6.11966 21.893 5.94653 21.7236 5.86184L18 4.00003C14.1053 2.70181 9.89466 2.70181 6 4.00003L2.27639 5.86184Z" fill="url(#paint0_linear_1054_17152)"/>
<path d="M8 3.43C10.6239 2.75429 13.3761 2.75429 16 3.43L15.655 4.97237C15.2721 6.68349 13.7534 7.9 12 7.9C10.2466 7.9 8.72785 6.68349 8.34505 4.97237L8 3.43Z" fill="#07AB56"/>
<path d="M9.5 3.23324C11.1228 2.69231 12.8772 2.69231 14.5 3.23324L13.9517 4.96962C13.6828 5.82111 12.8929 6.4 12 6.4C11.1071 6.4 10.3172 5.82111 10.0483 4.96962L9.5 3.23324Z" fill="#13D168"/>
<path d="M2 6.30902C2 6.11963 2.107 5.9465 2.27639 5.8618L4 5V11L2.72361 11.6382C2.39116 11.8044 2 11.5627 2 11.191V6.30902Z" fill="#07AB56"/>
<path d="M22 6.30902C22 6.11963 21.893 5.9465 21.7236 5.8618L20 5V11L21.2764 11.6382C21.6088 11.8044 22 11.5627 22 11.191V6.30902Z" fill="#07AB56"/>
<path d="M6 19H18V20C18 20.5523 17.5523 21 17 21H7C6.44772 21 6 20.5523 6 20V19Z" fill="#07AB56"/>
<defs>
<linearGradient id="paint0_linear_1054_17152" x1="2" y1="12.0132" x2="22" y2="12.0132" gradientUnits="userSpaceOnUse">
<stop stop-color="#22F779"/>
<stop offset="1" stop-color="#75FFA5"/>
</linearGradient>
</defs>
</svg>
