<svg width="16" height="16" viewBox="0 0 16 16" fill="none" xmlns="http://www.w3.org/2000/svg">
<circle cx="8.5" cy="8.5" r="5.5" fill="#22F779"/>
<path d="M6.64393 10.857L6.12653 9.15321H5.35742V8.63229H5.96572L5.44832 6.92847H6.4132L6.86767 8.63229H7.54589L8.0493 6.92847H8.95126L9.45467 8.63229H10.1399L10.5874 6.92847H11.5522L11.0348 8.63229H11.6431V9.15321H10.874L10.3566 10.857H9.33581L8.83939 9.15321H8.16816L7.66475 10.857H6.64393ZM7.00751 9.15321L7.16832 9.76637H7.21027L7.39206 9.15321H7.00751ZM8.32199 8.63229H8.68556L8.51776 8.06797H8.4828L8.32199 8.63229ZM9.60849 9.15321L9.79028 9.7718H9.83224L10 9.15321H9.60849Z" fill="#07AB56"/>
</svg>
