<svg width="24" height="24" viewBox="0 0 24 24" fill="none" xmlns="http://www.w3.org/2000/svg">
<path fill-rule="evenodd" clip-rule="evenodd" d="M13.2193 17.9424C16.504 17.3635 19 14.4864 19 11.0243C19 7.14489 15.866 4 12 4C8.13401 4 5 7.14489 5 11.0243C5 14.6319 7.71021 17.6043 11.199 18.0031L12.194 20.0001L13.2193 17.9424Z" fill="url(#paint0_linear_1794_48451)"/>
<path d="M10.3724 12.7199C10.1424 12.4934 9.97771 11.9518 9.95935 11.6626C9.92264 11.8975 9.78864 12.4379 9.54633 12.7199C9.30402 13.0018 8.74781 13.0904 8.5 13.0994C8.7111 13.0994 9.22142 13.1861 9.57386 13.5331C9.92631 13.8801 9.97771 14.3464 9.95935 14.5362C9.98689 14.3283 10.108 13.8368 10.3724 13.5331C10.6367 13.2295 11.1434 13.1175 11.3636 13.0994C11.1525 13.0361 10.6202 12.9638 10.3724 12.7199Z" fill="#333333"/>
<path d="M13.4079 9.7442C12.9224 9.2662 12.5747 8.12267 12.5359 7.51221C12.4584 8.00821 12.1755 9.149 11.664 9.7442C11.1525 10.3394 9.97824 10.5264 9.45508 10.5454C9.90074 10.5454 10.9781 10.7286 11.7221 11.4611C12.4662 12.1937 12.5747 13.178 12.5359 13.5787C12.5941 13.1399 12.8498 12.1021 13.4079 11.4611C13.9659 10.8201 15.0355 10.5836 15.5005 10.5454C15.0549 10.4119 13.931 10.2593 13.4079 9.7442Z" fill="#333333"/>
<defs>
<linearGradient id="paint0_linear_1794_48451" x1="5" y1="2.86701" x2="17.3168" y2="15.1958" gradientUnits="userSpaceOnUse">
<stop stop-color="#00DE59"/>
<stop offset="1" stop-color="#73F6A7"/>
</linearGradient>
</defs>
</svg>
