<svg width="48" height="48" viewBox="0 0 48 48" fill="none" xmlns="http://www.w3.org/2000/svg">
<path fill-rule="evenodd" clip-rule="evenodd" d="M27.1361 39.7277C35.5822 38.2438 42 30.8714 42 22C42 12.0589 33.9411 4 24 4C14.0589 4 6 12.0589 6 22C6 31.2451 12.9699 38.8623 21.9418 39.8836L24.5 45L27.1361 39.7277Z" fill="url(#paint0_linear_1614_45918)"/>
<path d="M19.8147 26.3455C19.2233 25.7653 18.7998 24.3772 18.7526 23.6362C18.6582 24.2383 18.3136 25.623 17.6906 26.3455C17.0675 27.068 15.6372 27.2949 15 27.318C15.5428 27.318 16.8551 27.5403 17.7614 28.4295C18.6677 29.3187 18.7998 30.5136 18.7526 30.9999C18.8234 30.4673 19.135 29.2076 19.8147 28.4295C20.4944 27.6515 21.7972 27.3644 22.3636 27.318C21.8208 27.156 20.4519 26.9707 19.8147 26.3455Z" fill="#333333"/>
<path d="M27.6194 18.7196C26.371 17.4947 25.4769 14.5643 25.3773 13C25.178 14.271 24.4505 17.1943 23.1351 18.7196C21.8198 20.2448 18.8004 20.7238 17.4551 20.7727C18.6011 20.7727 21.3713 21.242 23.2846 23.1192C25.1979 24.9964 25.4769 27.5189 25.3773 28.5455C25.5268 27.4211 26.1844 24.7617 27.6194 23.1192C29.0544 21.4767 31.8047 20.8705 33.0005 20.7727C31.8546 20.4305 28.9647 20.0395 27.6194 18.7196Z" fill="#333333"/>
<defs>
<linearGradient id="paint0_linear_1614_45918" x1="6" y1="1.09675" x2="37.5613" y2="32.7989" gradientUnits="userSpaceOnUse">
<stop stop-color="#00DE59"/>
<stop offset="1" stop-color="#73F6A7"/>
</linearGradient>
</defs>
</svg>
