<svg width="16" height="16" viewBox="0 0 16 16" fill="none" xmlns="http://www.w3.org/2000/svg">
<path fill-rule="evenodd" clip-rule="evenodd" d="M1.33398 3.33317C1.33398 2.96498 1.63246 2.6665 2.00065 2.6665H14.0007C14.3688 2.6665 14.6673 2.96498 14.6673 3.33317C14.6673 3.70136 14.3688 3.99984 14.0007 3.99984H2.00065C1.63246 3.99984 1.33398 3.70136 1.33398 3.33317Z" fill="#212529"/>
<path fill-rule="evenodd" clip-rule="evenodd" d="M1.33398 12.6667C1.33398 12.2985 1.63246 12 2.00065 12H14.0007C14.3688 12 14.6673 12.2985 14.6673 12.6667C14.6673 13.0349 14.3688 13.3333 14.0007 13.3333H2.00065C1.63246 13.3333 1.33398 13.0349 1.33398 12.6667Z" fill="#212529"/>
<path fill-rule="evenodd" clip-rule="evenodd" d="M14.668 7.99984C14.668 8.36803 14.3695 8.6665 14.0013 8.6665L2.0013 8.6665C1.63311 8.6665 1.33464 8.36803 1.33464 7.99984C1.33464 7.63165 1.63311 7.33317 2.0013 7.33317L14.0013 7.33317C14.3695 7.33317 14.668 7.63165 14.668 7.99984Z" fill="#212529"/>
<circle cx="10" cy="3.33325" r="2" fill="#212529"/>
<circle cx="10" cy="12.6665" r="2" fill="#212529"/>
<ellipse cx="6" cy="8" rx="2" ry="2" transform="rotate(-180 6 8)" fill="#212529"/>
</svg>
