<svg width="48" height="48" viewBox="0 0 48 48" fill="none" xmlns="http://www.w3.org/2000/svg">
<path d="M6 26.9752C6 26.3843 6.35414 25.8509 6.89874 25.6216C12.5414 23.2457 17.4926 19.4831 21.2928 14.6828L24.1411 11.0849C24.5797 10.5309 25.4203 10.5309 25.8589 11.0849L28.7072 14.6828C32.5075 19.4831 37.4586 23.2457 43.1013 25.6216C43.6459 25.8509 44 26.3843 44 26.9752V45C44 45.5523 43.5523 46 43 46H7C6.44772 46 6 45.5523 6 45V26.9752Z" fill="url(#paint0_linear_3556_122728)"/>
<path d="M24.5996 1.74959V11.0502C24.5996 11.2049 24.7677 11.301 24.901 11.2226L32.8066 6.57229C32.938 6.49496 32.938 6.30485 32.8066 6.22752L24.901 1.5772C24.7677 1.49877 24.5996 1.5949 24.5996 1.74959Z" fill="#37CC80"/>
<path d="M22.5 26L24.805 15.8581C24.8521 15.6505 25.1479 15.6505 25.195 15.8581L27.5 26L27.6028 26.4523C29.1876 33.4254 32.0334 40.0501 36 46H14C17.9666 40.0501 20.8124 33.4254 22.3972 26.4523L22.5 26Z" fill="#00A553"/>
<defs>
<linearGradient id="paint0_linear_3556_122728" x1="6" y1="7.4508" x2="33.2271" y2="40.3283" gradientUnits="userSpaceOnUse">
<stop stop-color="#00DE59"/>
<stop offset="1" stop-color="#73F6A7"/>
</linearGradient>
</defs>
</svg>
