<svg width="48" height="48" viewBox="0 0 48 48" fill="none" xmlns="http://www.w3.org/2000/svg">
<path d="M29.9239 13.8461L32.2931 3.18457L33.2394 9.80859C34.1796 16.3895 36.357 22.7329 39.6567 28.5039L40.9239 30.7201C41.2725 31.3297 40.7754 32.0756 40.0785 31.9885L36.5314 31.5451C33.7974 31.2034 31.0318 31.8563 28.7393 33.3846L27.5547 24.5076L29.9239 13.8461Z" fill="#00A553"/>
<path d="M12.8858 21.4997C17.0281 13.4481 23.6269 6.92479 31.7257 2.8754C32.3959 2.54033 33.1446 3.16173 32.9388 3.88214L31.3266 9.52486C29.6093 15.5354 28.7381 21.7559 28.7381 28.0069V32.9916C28.7381 33.5738 28.0342 33.8653 27.6225 33.4537C23.8697 29.7009 18.5146 28.0281 13.2929 28.9774L9.54512 29.6589C9.15866 29.7291 8.85956 29.3255 9.03926 28.9762L12.8858 21.4997Z" fill="url(#paint0_linear_3556_122724)"/>
<path d="M4.25569 42.0716C3.78362 42.2492 3.41449 41.6432 3.78888 41.3052L7.46478 37.9867C12.3691 33.5593 19.5308 32.702 25.3417 35.8467C28.8609 37.7513 32.9776 38.2305 36.8403 37.1853L43.3912 35.4127C43.9383 35.2647 44.2865 35.9819 43.8318 36.3202L38.8964 39.9928C33.9728 43.6566 27.3711 44.1317 21.9737 41.2107C17.9551 39.0358 13.1908 38.7107 8.91392 40.3194L4.25569 42.0716Z" fill="url(#paint1_linear_3556_122724)"/>
<defs>
<linearGradient id="paint0_linear_3556_122724" x1="8.59961" y1="-0.306261" x2="33.4448" y2="21.4031" gradientUnits="userSpaceOnUse">
<stop stop-color="#00DE59"/>
<stop offset="1" stop-color="#73F6A7"/>
</linearGradient>
<linearGradient id="paint1_linear_3556_122724" x1="2" y1="29.5096" x2="8.63312" y2="51.1899" gradientUnits="userSpaceOnUse">
<stop stop-color="#00DE59"/>
<stop offset="1" stop-color="#73F6A7"/>
</linearGradient>
</defs>
</svg>
