<svg width="48" height="48" viewBox="0 0 48 48" fill="none" xmlns="http://www.w3.org/2000/svg">
<path d="M23.1986 6.00098C5.59862 6.80098 3.19862 19.6676 4.19862 26.001C4.91896 30.5631 7.19922 36.001 14.1992 40.001C31.7992 48.001 40.3392 37.6676 42.0059 31.001C43.6059 20.601 37.1992 17.6676 34.1992 18.001C25.3992 18.801 25.1992 14.3343 26.1992 12.001C27.7992 7.20098 24.8655 6.00098 23.1986 6.00098Z" fill="url(#paint0_linear_3556_122725)"/>
<circle cx="15.502" cy="31.501" r="3.5" fill="#37CC80"/>
<circle cx="23.502" cy="35.501" r="3.5" fill="#37CC80"/>
<path d="M44.1799 38.9303C44.7657 39.516 44.7657 40.4658 44.1799 41.0516L42.7698 42.4616C42.184 43.0474 41.2343 43.0474 40.6485 42.4616L30.7422 32.5553L19.6473 23.2136L24.9436 17.9172L34.2735 29.0239L44.1799 38.9303Z" fill="#37CC80"/>
<path d="M25.3279 14.5515C26.3206 17.0036 25.7504 19.8116 23.8798 21.6822C21.9656 23.5964 19.0753 24.1449 16.5929 23.0649L16.2299 22.9069C13.5074 21.7224 11.7967 18.9824 11.9278 16.0163L12.3326 6.85466C12.3624 6.18104 13.2255 5.92334 13.6197 6.47039L14.0313 7.04151C15.2588 8.74493 17.1642 9.83289 19.2551 10.0243L19.4521 10.0423C22.0351 10.2787 24.2698 11.938 25.2432 14.3422L25.3279 14.5515Z" fill="#00A553"/>
<defs>
<linearGradient id="paint0_linear_3556_122725" x1="4.00195" y1="13.001" x2="24.2578" y2="26.1476" gradientUnits="userSpaceOnUse">
<stop stop-color="#00DE59"/>
<stop offset="1" stop-color="#73F6A7"/>
</linearGradient>
</defs>
</svg>
