<svg width="16" height="16" viewBox="0 0 16 16" fill="none" xmlns="http://www.w3.org/2000/svg">
<circle cx="8.5" cy="8.5" r="5.5" fill="#22F779"/>
<path d="M8.5 3C7.4122 3 6.34884 3.32257 5.44437 3.92692C4.5399 4.53126 3.83495 5.39025 3.41866 6.39524C3.00238 7.40023 2.89346 8.5061 3.10568 9.573C3.3179 10.6399 3.84173 11.6199 4.61091 12.3891C5.3801 13.1583 6.36011 13.6821 7.427 13.8943C8.4939 14.1065 9.59977 13.9976 10.6048 13.5813C11.6098 13.1651 12.4687 12.4601 13.0731 11.5556C13.6774 10.6512 14 9.5878 14 8.5C13.9983 7.04183 13.4183 5.64388 12.3872 4.6128C11.3561 3.58173 9.95817 3.00171 8.5 3ZM12.8984 6.45098H10.721C10.4614 5.45068 9.98811 4.51854 9.33363 3.71877C10.1035 3.85453 10.8294 4.17368 11.4499 4.64925C12.0704 5.12482 12.5672 5.74282 12.8984 6.45098ZM13.3529 8.5C13.3533 8.97492 13.2837 9.44731 13.1464 9.90196H10.8623C11.0198 8.97395 11.0198 8.02604 10.8623 7.09804H13.1464C13.2837 7.55269 13.3533 8.02507 13.3529 8.5ZM8.5 13.2359C8.1885 12.9182 7.91375 12.5664 7.68093 12.1872C7.36672 11.6761 7.12261 11.1251 6.95515 10.549H10.0449C9.87739 11.1251 9.63328 11.6761 9.31907 12.1872C9.08625 12.5664 8.8115 12.9182 8.5 13.2359ZM6.79878 9.90196C6.62265 8.97562 6.62265 8.02438 6.79878 7.09804H10.2012C10.3773 8.02438 10.3773 8.97562 10.2012 9.90196H6.79878ZM3.64706 8.5C3.6467 8.02507 3.71628 7.55269 3.85358 7.09804H6.1377C5.98021 8.02604 5.98021 8.97395 6.1377 9.90196H3.85358C3.71628 9.44731 3.6467 8.97492 3.64706 8.5ZM8.5 3.76407C8.8115 4.08183 9.08625 4.43363 9.31907 4.81284C9.63328 5.32392 9.87739 5.87489 10.0449 6.45098H6.95515C7.12261 5.87489 7.36672 5.32392 7.68093 4.81284C7.91375 4.43363 8.1885 4.08183 8.5 3.76407ZM7.66637 3.71877C7.01189 4.51854 6.53855 5.45068 6.27897 6.45098H4.10162C4.43279 5.74282 4.92963 5.12482 5.55011 4.64925C6.1706 4.17368 6.89648 3.85453 7.66637 3.71877ZM4.10162 10.549H6.27897C6.53855 11.5493 7.01189 12.4815 7.66637 13.2812C6.89648 13.1455 6.1706 12.8263 5.55011 12.3507C4.92963 11.8752 4.43279 11.2572 4.10162 10.549ZM9.33201 13.2812C9.98707 12.4816 10.461 11.5495 10.721 10.549H12.8984C12.5672 11.2572 12.0704 11.8752 11.4499 12.3507C10.8294 12.8263 10.1035 13.1455 9.33363 13.2812H9.33201Z" fill="#07AB56"/>
</svg>
