<svg width="30" height="34" viewBox="0 0 30 34" fill="none" xmlns="http://www.w3.org/2000/svg">
<path fill-rule="evenodd" clip-rule="evenodd" d="M17.16 29.7001C24.4209 28.658 30 22.4408 30 14.9268C30 6.68297 23.2843 0 15 0C6.71573 0 0 6.68297 0 14.9268C0 22.4408 5.57914 28.658 12.84 29.7001L15 33.9991L17.16 29.7001Z" fill="#22F779"/>
<path d="M16.8043 13.036C15.7639 12.0202 15.0189 9.59021 14.9358 8.29297C14.7697 9.34698 14.1635 11.7712 13.0674 13.036C11.9712 14.3008 9.45505 14.6981 8.33398 14.7386C9.28897 14.7386 11.5975 15.1278 13.1919 16.6845C14.7863 18.2412 15.0189 20.333 14.9358 21.1843C15.0604 20.2519 15.6085 18.0466 16.8043 16.6845C18.0001 15.3224 20.292 14.8197 21.2885 14.7386C20.3335 14.4549 17.9253 14.1306 16.8043 13.036Z" fill="#333333"/>
</svg>
