<svg width="24" height="24" viewBox="0 0 24 24" fill="none" xmlns="http://www.w3.org/2000/svg">
<path d="M5 5.25C5 4.14543 5.89543 3.25 7 3.25H17C18.1046 3.25 19 4.14543 19 5.25V18.75C19 19.8546 18.1046 20.75 17 20.75H7C5.89543 20.75 5 19.8546 5 18.75V5.25Z" fill="#F2F2F2"/>
<path fill-rule="evenodd" clip-rule="evenodd" d="M15.877 15.6619C15.4924 15.2655 15.4924 14.6229 15.877 14.2265L17.0665 13.0005H9.5C8.94772 13.0005 8.5 12.5527 8.5 12.0004C8.5 11.4481 8.94772 11.0003 9.5 11.0003H17.0676L15.877 9.77318C15.4924 9.3768 15.4924 8.73414 15.877 8.33776L15.9163 8.29728C16.3009 7.90091 16.9244 7.90091 17.309 8.29728L20.0652 11.1381C20.1028 11.167 20.1388 11.1991 20.1729 11.2342L20.2122 11.2747C20.4063 11.4748 20.5024 11.7377 20.5006 11.9999C20.5024 12.2621 20.4063 12.5249 20.2122 12.725L20.1729 12.7654C20.1388 12.8006 20.1028 12.8326 20.0652 12.8616L17.309 15.7024C16.9244 16.0988 16.3009 16.0988 15.9163 15.7024L15.877 15.6619Z" fill="#959595"/>
</svg>
