<svg width="16" height="16" viewBox="0 0 16 16" fill="none" xmlns="http://www.w3.org/2000/svg">
<rect x="6" y="6.6665" width="4" height="2.66667" fill="#13D168"/>
<path fill-rule="evenodd" clip-rule="evenodd" d="M4.33398 4C3.7817 4 3.33398 4.44772 3.33398 5V11C3.33398 11.5523 3.7817 12 4.33399 12H5.00065C5.55294 12 6.00065 11.5523 6.00065 11V5C6.00065 4.44772 5.55294 4 5.00065 4H4.33398ZM11.668 4C12.2203 4 12.668 4.44772 12.668 5V11C12.668 11.5523 12.2203 12 11.668 12H11.0013C10.449 12 10.0013 11.5523 10.0013 11V5C10.0013 4.44772 10.449 4 11.0013 4H11.668Z" fill="url(#paint0_linear_2341_51888)"/>
<path d="M1.33398 6.3335C1.33398 5.78121 1.7817 5.3335 2.33398 5.3335H3.33398V10.6668H2.33398C1.7817 10.6668 1.33398 10.2191 1.33398 9.66683V6.3335Z" fill="#07AB56"/>
<path d="M12.668 10.6665L13.668 10.6665C14.2203 10.6665 14.668 10.2188 14.668 9.6665L14.668 6.33317C14.668 5.78089 14.2203 5.33317 13.668 5.33317L12.668 5.33317L12.668 10.6665Z" fill="#07AB56"/>
<defs>
<linearGradient id="paint0_linear_2341_51888" x1="3.33398" y1="8" x2="12.668" y2="8" gradientUnits="userSpaceOnUse">
<stop stop-color="#22F779"/>
<stop offset="1" stop-color="#75FFA5"/>
</linearGradient>
</defs>
</svg>
