<svg width="24" height="24" viewBox="0 0 24 24" fill="none" xmlns="http://www.w3.org/2000/svg">
<path fill-rule="evenodd" clip-rule="evenodd" d="M7.92671 2.72796L7.2419 3.0005L2.25969 7.98271C1.88208 8.36032 1.8678 8.968 2.22726 9.36293L10.4971 18.4488C10.829 18.8135 11.2254 19.1136 11.6664 19.3341L14.9992 21.0005L15.0003 20.9985V20.9999H21.0003C21.5525 20.9999 22.0003 20.5522 22.0003 19.9999V16.9999C22.0003 15.1318 20.7196 13.5628 18.9883 13.1229L19 13.0999L18.7745 12.7095C17.93 11.2469 17.3306 9.65587 16.9999 7.99961L16.692 6.15213C16.587 5.52187 15.9811 5.10365 15.3545 5.22888L14.3772 5.4242C14.1263 5.47435 13.871 5.49968 13.6151 5.49982L13.14 5.50007C12.4094 5.50046 11.7086 5.21041 11.192 4.6938C11.0635 4.56537 10.9481 4.42454 10.8475 4.27338L10.4106 3.61756C10.1442 3.21763 9.75208 2.91792 9.29625 2.76582L9.08441 2.69513C8.70673 2.56911 8.29664 2.58073 7.92671 2.72796Z" fill="url(#paint0_linear_1822_39560)"/>
<path fill-rule="evenodd" clip-rule="evenodd" d="M3.61501 6.62744L12.07 16.0219C12.355 16.3386 12.6888 16.6077 13.0587 16.819L15.078 17.9729C15.6824 18.3183 16.3664 18.4999 17.0625 18.4999H22.0003V20C22.0003 20.5523 21.5525 21 21.0003 21H15.0003V20.9985L14.9992 21.0005L11.6664 19.3341C11.2254 19.1136 10.829 18.8135 10.4971 18.4489L2.22726 9.36298C1.8678 8.96805 1.88208 8.36037 2.25969 7.98276L3.61501 6.62744Z" fill="#13D168"/>
<rect x="13" y="8.5" width="5" height="1.5" rx="0.75" fill="#07AB56"/>
<rect x="14" y="11.5" width="5" height="1.5" rx="0.75" fill="#07AB56"/>
<path fill-rule="evenodd" clip-rule="evenodd" d="M7.85938 2.75411C8.2289 3.75397 10.7442 6.9996 13.0001 6.9996C14.7668 6.9996 15.8964 6.7342 16.7408 6.45458L16.6904 6.15213C16.5853 5.52187 15.9795 5.10365 15.3529 5.22888L14.3756 5.4242C14.1247 5.47435 13.8694 5.49968 13.6135 5.49982L13.1383 5.50007C12.4077 5.50046 11.707 5.21041 11.1903 4.6938C11.0619 4.56537 10.9465 4.42454 10.8458 4.27338L10.409 3.61756C10.1426 3.21763 9.75044 2.91792 9.29461 2.76582L9.08278 2.69513C8.70509 2.56911 8.29501 2.58073 7.92507 2.72796L7.85938 2.75411Z" fill="#13D168"/>
<defs>
<linearGradient id="paint0_linear_1822_39560" x1="1.9668" y1="11.8044" x2="22.0005" y2="11.8044" gradientUnits="userSpaceOnUse">
<stop stop-color="#22F779"/>
<stop offset="1" stop-color="#75FFA5"/>
</linearGradient>
</defs>
</svg>
