<svg width="24" height="24" viewBox="0 0 24 24" fill="none" xmlns="http://www.w3.org/2000/svg">
<path d="M2.5 6C2.5 3.79086 4.29086 2 6.5 2H8.45238C10.6615 2 12.4524 3.79086 12.4524 6V12.4762C12.4524 14.6853 10.6615 16.4762 8.45238 16.4762H6.5C4.29086 16.4762 2.5 14.6853 2.5 12.4762V6Z" fill="url(#paint0_linear_1822_39556)"/>
<path d="M11.5476 6C11.5476 3.79086 13.3385 2 15.5476 2H17.5C19.7091 2 21.5 3.79086 21.5 6V12.4762C21.5 14.6853 19.7091 16.4762 17.5 16.4762H15.5476C13.3385 16.4762 11.5476 14.6853 11.5476 12.4762V6Z" fill="#13D168"/>
<path d="M6.92386 6.29762C6.92386 5.92286 7.22767 5.61905 7.60244 5.61905C7.9772 5.61905 8.28101 5.92285 8.28101 6.29762V8.77237L9.27751 7.77587C9.5425 7.51087 9.97215 7.51087 10.2372 7.77587C10.5021 8.04087 10.5021 8.47052 10.2372 8.73551L8.28101 10.6917V12.3914L9.27751 11.3949C9.5425 11.1299 9.97215 11.1299 10.2372 11.3949C10.5021 11.6599 10.5021 12.0896 10.2372 12.3546L8.28101 14.3107V20.3214C8.28101 20.6962 7.9772 21 7.60244 21C7.22767 21 6.92386 20.6962 6.92386 20.3214V14.589L4.6894 12.3546C4.4244 12.0896 4.4244 11.6599 4.6894 11.3949C4.9544 11.1299 5.38405 11.1299 5.64905 11.3949L6.92386 12.6697V10.97L4.6894 8.73551C4.4244 8.47052 4.4244 8.04087 4.6894 7.77587C4.9544 7.51087 5.38405 7.51087 5.64905 7.77587L6.92386 9.05069V6.29762Z" fill="#07AB56"/>
<path d="M15.9718 6.29765C15.9718 5.92288 16.2756 5.61908 16.6503 5.61908C17.0251 5.61908 17.3289 5.92288 17.3289 6.29765V8.7724L18.3254 7.7759C18.5904 7.5109 19.0201 7.5109 19.2851 7.7759C19.5501 8.0409 19.5501 8.47054 19.2851 8.73554L17.3289 10.6917V12.3914L18.3254 11.3949C18.5904 11.1299 19.0201 11.1299 19.2851 11.3949C19.5501 11.6599 19.5501 12.0896 19.2851 12.3546L17.3289 14.3107V20.3215C17.3289 20.6962 17.0251 21 16.6503 21C16.2756 21 15.9718 20.6962 15.9718 20.3215V14.5891L13.7373 12.3546C13.4723 12.0896 13.4723 11.6599 13.7373 11.3949C14.0023 11.1299 14.432 11.1299 14.697 11.3949L15.9718 12.6698V10.97L13.7373 8.73554C13.4723 8.47054 13.4723 8.0409 13.7373 7.7759C14.0023 7.5109 14.432 7.5109 14.697 7.7759L15.9718 9.05072V6.29765Z" fill="#07AB56"/>
<defs>
<linearGradient id="paint0_linear_1822_39556" x1="2.5" y1="11.5" x2="21.5" y2="11.5" gradientUnits="userSpaceOnUse">
<stop stop-color="#22F779"/>
<stop offset="1" stop-color="#75FFA5"/>
</linearGradient>
</defs>
</svg>
