<svg width="24" height="24" viewBox="0 0 24 24" fill="none" xmlns="http://www.w3.org/2000/svg">
<path fill-rule="evenodd" clip-rule="evenodd" d="M21.0536 6.53262C20.6172 8.18622 19.4451 9.54474 17.8834 10.2071L15.4677 11.2318C14.1614 11.7858 12.6714 11.2419 12.0158 10.0036C11.3601 11.2419 9.87007 11.7856 8.56385 11.2315L6.14894 10.207C4.58771 9.54469 3.416 8.18651 2.97965 6.53335L2.51408 4.76944C2.48807 4.67091 2.54538 4.57014 2.64244 4.54374L4.33136 4.08433C5.99678 3.63131 7.78026 3.96248 9.18684 4.98592L11.1926 6.44531C11.5452 6.70185 11.8224 7.02983 12.0159 7.39742C12.2095 7.02984 12.4868 6.70189 12.8394 6.44539L14.8461 4.98565C16.2528 3.96236 18.0363 3.6313 19.7017 4.08432L21.3907 4.54374C21.4877 4.57014 21.545 4.6709 21.519 4.76942L21.0536 6.53262Z" fill="url(#paint0_linear_1822_39555)"/>
<path fill-rule="evenodd" clip-rule="evenodd" d="M6.73071 7.84161C6.48766 7.71823 6.39633 7.41391 6.53119 7.17679C6.655 6.95908 6.92565 6.87763 7.1488 6.99091L9.19563 8.02997C9.29496 8.08039 9.39 8.1391 9.47976 8.20547L11.9977 10.0675L11.9906 10.08C12.023 10.0743 12.0564 10.0714 12.0904 10.0714C12.1186 10.0714 12.1464 10.0734 12.1736 10.0773L12.9467 9.46912C13.9972 8.64264 15.1548 7.96627 16.3865 7.45922L16.976 7.21653C17.1764 7.13404 17.4053 7.21304 17.5126 7.40174C17.6434 7.63167 17.5421 7.92675 17.298 8.02726L16.6397 8.29827C15.5284 8.75573 14.484 9.36596 13.5362 10.1116L12.6668 10.7956V17.6863C12.6668 18.0046 12.4087 18.2626 12.0904 18.2626C11.7721 18.2626 11.5141 18.0046 11.5141 17.6863V10.8816L9.01066 9.03029C8.92091 8.96391 8.82587 8.90521 8.72654 8.85478L6.73071 7.84161Z" fill="#07AB56"/>
<path d="M3.01563 15.7715C3.01563 15.2192 3.46334 14.7715 4.01562 14.7715H20.0156C20.5679 14.7715 21.0156 15.2192 21.0156 15.7715V19.7715C21.0156 20.3238 20.5679 20.7715 20.0156 20.7715H4.01563C3.46334 20.7715 3.01563 20.3238 3.01563 19.7715L3.01563 15.7715Z" fill="#13D168"/>
<rect x="12.207" y="15.7715" width="1.15269" height="8.19124" rx="0.576347" transform="rotate(90 12.207 15.7715)" fill="#008545"/>
<rect x="20.0156" y="15.7715" width="1" height="5" rx="0.5" transform="rotate(90 20.0156 15.7715)" fill="#008545"/>
<rect x="15.207" y="17.7715" width="1.15269" height="8.19124" rx="0.576347" transform="rotate(90 15.207 17.7715)" fill="#008545"/>
<defs>
<linearGradient id="paint0_linear_1822_39555" x1="2.50781" y1="7.66708" x2="21.5253" y2="7.66708" gradientUnits="userSpaceOnUse">
<stop stop-color="#22F779"/>
<stop offset="1" stop-color="#75FFA5"/>
</linearGradient>
</defs>
</svg>
