<svg width="24" height="24" viewBox="0 0 24 24" fill="none" xmlns="http://www.w3.org/2000/svg">
<path d="M3.36992 6.82012C3.92651 5.20726 5.44489 4.125 7.15109 4.125H8.7V15.375L5.4 17.625C4.04162 17.625 2.78949 16.8903 2.12693 15.7044L1.43671 14.4691C1.15885 13.9718 1.10624 13.3796 1.29207 12.8411L3.36992 6.82012Z" fill="#13D168"/>
<path d="M20.6301 6.82012C20.0735 5.20726 18.5551 4.125 16.8489 4.125H15.3V15.375L18.6 17.625C19.9584 17.625 21.2105 16.8903 21.8731 15.7044L22.5633 14.4691C22.8411 13.9718 22.8938 13.3796 22.7079 12.8411L20.6301 6.82012Z" fill="#13D168"/>
<path d="M6.59363 6.24705C7.3133 4.29594 9.17259 3 11.2522 3H12.7478C14.8274 3 16.6867 4.29594 17.4064 6.24704L19.4827 11.8762C19.978 13.2191 19.9794 14.6945 19.4867 16.0383C18.8786 17.6968 17.5738 19.0051 15.9171 19.6178L14.2957 20.2174C12.8073 20.7248 11.1927 20.7248 9.70435 20.2174L8.08292 19.6178C6.42618 19.0051 5.12142 17.6968 4.51333 16.0383C4.02058 14.6945 4.022 13.2191 4.51733 11.8762L6.59363 6.24705Z" fill="url(#paint0_linear_1822_39563)"/>
<ellipse cx="9.25039" cy="10.875" rx="1.1" ry="1.125" fill="#07AB56"/>
<ellipse cx="14.7504" cy="10.875" rx="1.1" ry="1.125" fill="#07AB56"/>
<path d="M10.2093 13.9712C10.2571 13.7015 10.4609 13.4862 10.7275 13.4236L11.542 13.2324C11.8427 13.1617 12.1557 13.1617 12.4564 13.2324L13.271 13.4236C13.5376 13.4862 13.7413 13.7015 13.7892 13.9712C13.873 14.4435 13.7038 14.9254 13.3431 15.2416L12.5492 15.9375H11.4492L10.6554 15.2416C10.2946 14.9254 10.1254 14.4435 10.2093 13.9712Z" fill="#07AB56"/>
<path d="M11.4492 15.9375H12.5492V20.55H11.4492V15.9375Z" fill="#07AB56"/>
<defs>
<linearGradient id="paint0_linear_1822_39563" x1="3.75" y1="12" x2="20.8" y2="12" gradientUnits="userSpaceOnUse">
<stop stop-color="#22F779"/>
<stop offset="1" stop-color="#75FFA5"/>
</linearGradient>
</defs>
</svg>
