<svg width="16" height="16" viewBox="0 0 16 16" fill="none" xmlns="http://www.w3.org/2000/svg">
<path fill-rule="evenodd" clip-rule="evenodd" d="M9.33268 3.6665C9.33268 3.11422 8.88497 2.6665 8.33268 2.6665H7.66602C7.11373 2.6665 6.66602 3.11422 6.66602 3.6665V4.33317C6.66602 4.88546 6.2183 5.33317 5.66602 5.33317H3.66602C3.11373 5.33317 2.66602 5.78089 2.66602 6.33317V6.99984C2.66602 7.55212 3.11373 7.99984 3.66602 7.99984H12.3327C12.885 7.99984 13.3327 7.55212 13.3327 6.99984V6.33317C13.3327 5.78089 12.885 5.33317 12.3327 5.33317H10.3327C9.7804 5.33317 9.33268 4.88545 9.33268 4.33317V3.6665Z" fill="#13D168"/>
<path d="M9.88218 13.3333H2.31145C2.17268 13.3333 2.08567 13.1834 2.15452 13.0629C2.92701 11.7111 3.33333 10.181 3.33333 8.62404V8H12.6667L12.7334 8.60094C12.9102 10.1916 13.3204 11.7476 13.9509 13.2187C13.9741 13.2729 13.9343 13.3333 13.8752 13.3333H12.1013C12.0392 13.3333 11.9825 13.2983 11.9547 13.2427L11.9343 13.2019C11.5365 12.4064 11.277 11.5491 11.1667 10.6667C11.0574 11.5404 10.7221 12.3705 10.1938 13.075L10.0707 13.2391C10.0262 13.2984 9.95635 13.3333 9.88218 13.3333Z" fill="url(#paint0_linear_2341_51983)"/>
<path d="M10.3212 9.12877C9.89284 8.70853 9.58612 7.70319 9.55193 7.1665C9.48356 7.60256 9.23398 8.6055 8.7827 9.12877C8.33142 9.65204 7.29552 9.8164 6.83398 9.83317C7.22715 9.83317 8.17757 9.99418 8.83398 10.6382C9.49039 11.2822 9.58612 12.1476 9.55193 12.4998C9.60322 12.1141 9.82886 11.2017 10.3212 10.6382C10.8135 10.0747 11.7571 9.86671 12.1673 9.83317C11.7742 9.71577 10.7827 9.5816 10.3212 9.12877Z" fill="#008E48"/>
<path d="M6.94937 6.9717C6.62813 6.65652 6.39809 5.90252 6.37245 5.5C6.32116 5.82704 6.13398 6.57925 5.79552 6.9717C5.45706 7.36415 4.68014 7.48742 4.33398 7.5C4.62886 7.5 5.34168 7.62075 5.83398 8.10377C6.32629 8.58679 6.39809 9.23585 6.37245 9.5C6.41091 9.21069 6.58014 8.52642 6.94937 8.10377C7.3186 7.68113 8.02629 7.52516 8.33398 7.5C8.03911 7.41195 7.29552 7.31132 6.94937 6.9717Z" fill="#008E48"/>
<defs>
<linearGradient id="paint0_linear_2341_51983" x1="2" y1="10.6667" x2="14" y2="10.6667" gradientUnits="userSpaceOnUse">
<stop stop-color="#22F779"/>
<stop offset="1" stop-color="#75FFA5"/>
</linearGradient>
</defs>
</svg>
