<svg width="16" height="16" viewBox="0 0 16 16" fill="none" xmlns="http://www.w3.org/2000/svg">
<path fill-rule="evenodd" clip-rule="evenodd" d="M14.0364 4.35492C13.7454 5.45732 12.964 6.36299 11.9229 6.80459L10.3124 7.48768C9.44137 7.85713 8.44774 7.49429 8.01087 6.66827C7.57392 7.49425 6.58026 7.85702 5.70923 7.4875L4.09929 6.80451C3.05847 6.36296 2.27733 5.45751 1.98644 4.3554L1.67605 3.17946C1.65871 3.11378 1.69692 3.04659 1.76163 3.02899L2.88758 2.72272C3.99785 2.42071 5.18684 2.64149 6.12456 3.32378L7.46172 4.29671C7.69697 4.46788 7.88194 4.68676 8.01095 4.93207C8.13998 4.68677 8.32498 4.46791 8.56025 4.29676L9.89805 3.3236C10.8359 2.64141 12.0248 2.42071 13.1351 2.72272L14.2611 3.029C14.3258 3.0466 14.364 3.11377 14.3467 3.17945L14.0364 4.35492Z" fill="url(#paint0_linear_2341_51952)"/>
<path fill-rule="evenodd" clip-rule="evenodd" d="M4.48909 5.22758C4.32706 5.14532 4.26617 4.94244 4.35608 4.78437C4.43862 4.63923 4.61906 4.58492 4.76782 4.66044L6.09062 5.33196C6.18463 5.37968 6.27457 5.43524 6.35952 5.49805L8.00043 6.71153L7.99599 6.71933C8.0173 6.71567 8.03922 6.71376 8.06157 6.71376C8.08052 6.71376 8.09915 6.71513 8.11736 6.71778L8.63242 6.31259C9.3328 5.7616 10.1045 5.31068 10.9256 4.97265L11.3187 4.81086C11.4522 4.75586 11.6048 4.80853 11.6764 4.93433C11.7636 5.08762 11.696 5.28434 11.5333 5.35135L11.0944 5.53202C10.3536 5.83699 9.65733 6.24381 9.02543 6.74092L8.4458 7.19692V11.7904C8.4458 12.0026 8.27378 12.1746 8.06157 12.1746C7.84937 12.1746 7.67734 12.0026 7.67734 11.7904V7.25374L6.03333 6.03798C5.95734 5.98178 5.87688 5.93208 5.79279 5.88939L4.48909 5.22758Z" fill="#07AB56"/>
<path d="M2.01172 10.8477C2.01172 10.2954 2.45943 9.84766 3.01172 9.84766H13.0117C13.564 9.84766 14.0117 10.2954 14.0117 10.8477V12.8477C14.0117 13.3999 13.564 13.8477 13.0117 13.8477H3.01172C2.45943 13.8477 2.01172 13.3999 2.01172 12.8477L2.01172 10.8477Z" fill="#13D168"/>
<rect x="8.13867" y="10.5142" width="0.768462" height="5.46082" rx="0.384231" transform="rotate(90 8.13867 10.5142)" fill="#008545"/>
<rect x="13.3438" y="10.5142" width="0.666667" height="3.33333" rx="0.333333" transform="rotate(90 13.3438 10.5142)" fill="#008545"/>
<rect x="10.1387" y="11.8477" width="0.768462" height="5.46082" rx="0.384231" transform="rotate(90 10.1387 11.8477)" fill="#008545"/>
<defs>
<linearGradient id="paint0_linear_2341_51952" x1="1.67188" y1="5.11124" x2="14.3508" y2="5.11124" gradientUnits="userSpaceOnUse">
<stop stop-color="#22F779"/>
<stop offset="1" stop-color="#75FFA5"/>
</linearGradient>
</defs>
</svg>
