<svg width="16" height="16" viewBox="0 0 16 16" fill="none" xmlns="http://www.w3.org/2000/svg">
<path fill-rule="evenodd" clip-rule="evenodd" d="M12.6731 2.29078L12.7763 2.39397C12.8318 2.44944 12.8318 2.53937 12.7763 2.59483L10.5606 4.81056C10.4115 4.95962 10.4115 5.20129 10.5606 5.35035C10.7005 5.49029 10.9242 5.50006 11.0758 5.37285L13.511 3.32953C13.5728 3.27768 13.664 3.28166 13.721 3.33871L13.8427 3.46034C13.8997 3.51738 13.9037 3.60857 13.8518 3.67037L11.8085 6.10555C11.6813 6.25716 11.6911 6.48085 11.831 6.62079C11.9801 6.76985 12.2217 6.76985 12.3708 6.62079L14.5865 4.40507C14.642 4.3496 14.7319 4.3496 14.7874 4.40507L14.8906 4.50827C14.9952 4.61288 15.0035 4.77974 14.9098 4.89425L13.4239 6.71037C12.6086 7.7069 11.4829 8.40161 10.2266 8.68364L9.04789 8.94825C8.49232 9.49193 7.97228 10.0716 7.49124 10.6839L5.5568 13.1459C5.33122 13.433 5.04485 13.6666 4.71826 13.8299L4.53453 13.9217C4.16825 14.1049 3.72588 14.0331 3.43631 13.7435C3.14674 13.454 3.07496 13.0116 3.25809 12.6453L3.34996 12.4616C3.51325 12.135 3.74684 11.8486 4.03395 11.623L6.49597 9.68859C7.10911 9.20683 7.68963 8.68595 8.23402 8.12944L8.49773 6.95473C8.77976 5.69842 9.47447 4.57278 10.471 3.75744L12.2871 2.27152C12.4016 2.17784 12.5685 2.18616 12.6731 2.29078Z" fill="#13D168"/>
<path fill-rule="evenodd" clip-rule="evenodd" d="M1.77791 3.11125C1.46949 3.41967 1.30768 3.84526 1.33329 4.28068L1.38055 5.08407C1.42829 5.89556 1.77216 6.66132 2.34697 7.23613L2.6292 7.51836C3.61757 8.50673 5.01919 8.96252 6.39986 8.74451L6.53285 8.72352C7.32696 9.4297 8.05712 10.2056 8.71443 11.0422L10.6489 13.5042C10.8745 13.7913 11.1608 14.0249 11.4874 14.1882L11.6711 14.28C12.0374 14.4632 12.4798 14.3914 12.7694 14.1018C13.0589 13.8122 13.1307 13.3699 12.9476 13.0036L12.8557 12.8199C12.6924 12.4933 12.4588 12.2069 12.1717 11.9813L9.70971 10.0469C8.87287 9.38937 8.09679 8.65897 7.39043 7.86458L7.41117 7.7332C7.62917 6.35253 7.17339 4.95091 6.18502 3.96254L5.90279 3.68031C5.32798 3.1055 4.56222 2.76163 3.75072 2.71389L2.94734 2.66663C2.51192 2.64102 2.08633 2.80283 1.77791 3.11125Z" fill="url(#paint0_linear_2341_51943)"/>
<defs>
<linearGradient id="paint0_linear_2341_51943" x1="5.4955" y1="10.3847" x2="9.05132" y2="6.82884" gradientUnits="userSpaceOnUse">
<stop stop-color="#22F779"/>
<stop offset="1" stop-color="#75FFA5"/>
</linearGradient>
</defs>
</svg>
