<svg width="24" height="24" viewBox="0 0 24 24" fill="none" xmlns="http://www.w3.org/2000/svg">
<path fill-rule="evenodd" clip-rule="evenodd" d="M9.45961 4.5C8.51226 4.5 7.69486 5.16465 7.50165 6.09209L7.20833 7.5H5C3.89543 7.5 3 8.39543 3 9.5V17.5C3 18.6046 3.89543 19.5 5 19.5H19C20.1046 19.5 21 18.6046 21 17.5V9.5C21 8.39543 20.1046 7.5 19 7.5H16.7917L16.4984 6.09209C16.3051 5.16465 15.4877 4.5 14.5404 4.5H9.45961Z" fill="url(#paint0_linear_1822_39562)"/>
<rect x="17" y="11.5" width="2" height="2" transform="rotate(-90 17 11.5)" fill="#07AB56"/>
<circle cx="12" cy="13.5" r="4" fill="#07AB56"/>
<circle cx="12" cy="13.5" r="2.25" fill="#13D168"/>
<defs>
<linearGradient id="paint0_linear_1822_39562" x1="3" y1="12" x2="21" y2="12" gradientUnits="userSpaceOnUse">
<stop stop-color="#22F779"/>
<stop offset="1" stop-color="#75FFA5"/>
</linearGradient>
</defs>
</svg>
