<svg width="24" height="24" viewBox="0 0 24 24" fill="none" xmlns="http://www.w3.org/2000/svg">
<path d="M6.65882 13.3063L3.49524 18.2274C3.28133 18.5602 3.52025 18.9978 3.91583 18.9978H11.0842C11.4797 18.9978 11.7187 18.5602 11.5048 18.2274L8.34118 13.3063C7.94754 12.694 7.05246 12.694 6.65882 13.3063Z" fill="#07AB56"/>
<path d="M12.7676 9.00058L7.86522 17.4981C7.48061 18.1647 7.96175 18.9978 8.73141 18.9978H20.2686C21.0382 18.9978 21.5194 18.1647 21.1348 17.4981L16.2324 9.00058C15.4627 7.66651 13.5373 7.66651 12.7676 9.00058Z" fill="url(#paint0_linear_1822_39565)"/>
<path d="M6 5C5.17157 5 4.5 5.67157 4.5 6.5C4.5 6.67532 4.53008 6.84361 4.58535 7H3.25C2.55964 7 2 7.55964 2 8.25C2 8.94036 2.55964 9.5 3.25 9.5H5.75C6.44036 9.5 7 8.94036 7 8.25C7 8.16438 6.99139 8.08078 6.975 8H10C10.8284 8 11.5 7.32843 11.5 6.5C11.5 5.67157 10.8284 5 10 5H6Z" fill="#13D168"/>
<defs>
<linearGradient id="paint0_linear_1822_39565" x1="2" y1="11.9989" x2="21.2701" y2="11.9989" gradientUnits="userSpaceOnUse">
<stop stop-color="#22F779"/>
<stop offset="1" stop-color="#75FFA5"/>
</linearGradient>
</defs>
</svg>
