<svg width="24" height="24" viewBox="0 0 24 24" fill="none" xmlns="http://www.w3.org/2000/svg">
<path d="M4.10168 5.54075C4.04256 5.06775 4.32551 4.61877 4.77773 4.46803L11.8656 2.10541C12.0709 2.03699 12.2928 2.03699 12.498 2.10541L19.5859 4.46803C20.0381 4.61877 20.3211 5.06775 20.262 5.54075L19.2392 13.7229C19.0852 14.9544 18.4789 16.0845 17.538 16.8937L14.79 19.257C13.2903 20.5467 11.0733 20.5467 9.57366 19.257L6.82565 16.8937C5.88475 16.0845 5.27839 14.9544 5.12446 13.7229L4.10168 5.54075Z" fill="#13D168"/>
<path d="M5.91518 6.73685C5.85884 6.26487 6.14252 5.81844 6.59375 5.66901L11.8676 3.92247C12.0718 3.85487 12.2922 3.85487 12.4964 3.92247L17.7702 5.66901C18.2215 5.81844 18.5052 6.26487 18.4488 6.73685L17.7298 12.7598C17.573 14.0729 16.9025 15.2704 15.8648 16.0902L13.4219 18.0204C12.6951 18.5947 11.6689 18.5947 10.9421 18.0204L8.49916 16.0902C7.46153 15.2704 6.79095 14.0729 6.6342 12.7598L5.91518 6.73685Z" fill="url(#paint0_linear_1822_39552)"/>
<path fill-rule="evenodd" clip-rule="evenodd" d="M15.9822 8.54341C16.2217 8.78294 16.2217 9.17129 15.9822 9.41082L12.2206 13.1724C12.2177 13.1754 12.2147 13.1785 12.2117 13.1815C12.0741 13.319 11.8875 13.3776 11.7081 13.3571C11.5751 13.342 11.4461 13.2834 11.3441 13.1814C11.3415 13.1788 11.3388 13.1761 11.3362 13.1734L8.95894 10.7961C8.71942 10.5566 8.71941 10.1682 8.95894 9.92869C9.19847 9.68916 9.58682 9.68916 9.82635 9.92869L11.7779 11.8803L15.1148 8.54341C15.3543 8.30389 15.7426 8.30389 15.9822 8.54341Z" fill="#07AB56"/>
<defs>
<linearGradient id="paint0_linear_1822_39552" x1="5.81836" y1="11.4092" x2="18.5456" y2="11.4092" gradientUnits="userSpaceOnUse">
<stop stop-color="#22F779"/>
<stop offset="1" stop-color="#75FFA5"/>
</linearGradient>
</defs>
</svg>
