<svg width="24" height="24" viewBox="0 0 24 24" fill="none" xmlns="http://www.w3.org/2000/svg">
<path fill-rule="evenodd" clip-rule="evenodd" d="M14 5C14 4.44772 13.5523 4 13 4H11C10.4477 4 10 4.44772 10 5V7C10 7.55228 9.55228 8 9 8H5C4.44772 8 4 8.44772 4 9V11C4 11.5523 4.44772 12 5 12H19C19.5523 12 20 11.5523 20 11V9C20 8.44772 19.5523 8 19 8H15C14.4477 8 14 7.55228 14 7V5Z" fill="#13D168"/>
<path d="M14.8233 20H3.46718C3.25901 20 3.12851 19.7751 3.23179 19.5944C4.39051 17.5666 5 15.2715 5 12.9361V12H19L19.1002 12.9014C19.3653 15.2874 19.9806 17.6214 20.9263 19.828C20.9612 19.9094 20.9014 20 20.8129 20H18.1519C18.0588 20 17.9737 19.9474 17.9321 19.8641L17.9014 19.8028C17.3048 18.6096 16.9155 17.3237 16.75 16C16.5862 17.3106 16.0832 18.5558 15.2907 19.6125L15.106 19.8586C15.0393 19.9476 14.9345 20 14.8233 20Z" fill="url(#paint0_linear_1822_39553)"/>
<path d="M15.4808 13.6934C14.8383 13.063 14.3782 11.555 14.3269 10.75C14.2244 11.4041 13.85 12.9085 13.1731 13.6934C12.4962 14.4783 10.9423 14.7248 10.25 14.75C10.8397 14.75 12.2654 14.9915 13.25 15.9575C14.2346 16.9236 14.3782 18.2217 14.3269 18.75C14.4038 18.1714 14.7423 16.8028 15.4808 15.9575C16.2192 15.1123 17.6346 14.8003 18.25 14.75C17.6603 14.5739 16.1731 14.3726 15.4808 13.6934Z" fill="#008E48"/>
<path d="M10.4231 10.4575C9.94122 9.98478 9.59615 8.85377 9.55769 8.25C9.48077 8.74057 9.2 9.86887 8.69231 10.4575C8.18462 11.0462 7.01923 11.2311 6.5 11.25C6.94231 11.25 8.01154 11.4311 8.75 12.1557C9.48846 12.8802 9.59615 13.8538 9.55769 14.25C9.61538 13.816 9.86923 12.7896 10.4231 12.1557C10.9769 11.5217 12.0385 11.2877 12.5 11.25C12.0577 11.1179 10.9423 10.967 10.4231 10.4575Z" fill="#008E48"/>
<defs>
<linearGradient id="paint0_linear_1822_39553" x1="3" y1="16" x2="21" y2="16" gradientUnits="userSpaceOnUse">
<stop stop-color="#22F779"/>
<stop offset="1" stop-color="#75FFA5"/>
</linearGradient>
</defs>
</svg>
