<svg width="16" height="16" viewBox="0 0 16 16" fill="none" xmlns="http://www.w3.org/2000/svg">
<path fill-rule="evenodd" clip-rule="evenodd" d="M6.49765 12.1181C6.47582 12.1454 6.45225 12.1718 6.42694 12.1971L4.61221 14.0118C4.2434 14.3806 3.64543 14.3806 3.27661 14.0118C2.9078 13.643 2.9078 13.045 3.27661 12.6762L4.98677 10.966L5.61166 8.63391C5.75063 8.11527 6.28373 7.80748 6.80237 7.94645C7.32102 8.08543 7.62881 8.61853 7.48984 9.13717L6.82651 11.6127C6.77103 11.8198 6.65275 11.9932 6.49765 12.1181Z" fill="#13D168"/>
<path fill-rule="evenodd" clip-rule="evenodd" d="M7.61444 4.66338C8.48467 4.60782 9.1733 3.88441 9.1733 3.00015C9.1733 2.07968 8.42711 1.3335 7.50665 1.3335C6.58618 1.3335 5.83999 2.07968 5.83999 3.00015C5.83999 3.56279 6.11878 4.0603 6.54576 4.3621H6.46213C6.44748 4.3621 6.43296 4.36273 6.4186 4.36397C6.26298 4.34512 6.10016 4.37471 5.95395 4.45912L3.64528 5.79203C3.35155 5.89367 3.14062 6.17269 3.14063 6.50098L3.14063 8.88986C3.14063 9.30407 3.47641 9.63985 3.89062 9.63985C4.30483 9.63985 4.64062 9.30407 4.64062 8.88985L4.64062 6.94942L5.80161 6.27912L5.52075 8.80685C5.51803 8.83133 5.51712 8.85555 5.5179 8.8794C5.481 9.16776 5.57329 9.46949 5.79475 9.69096L7.85877 11.755L8.44571 13.9455C8.58468 14.4641 9.11778 14.7719 9.63643 14.6329C10.1551 14.494 10.4629 13.9609 10.3239 13.4422L9.68404 11.0543C9.65483 10.9452 9.60819 10.8455 9.54793 10.7573C9.50326 10.6717 9.44498 10.5913 9.37308 10.5194L8.21571 9.36207H8.23682L8.49122 7.07248L9.43567 8.01694C9.53965 8.1265 9.678 8.20536 9.83791 8.23489L11.8638 8.60899C12.2659 8.68325 12.6521 8.41747 12.7263 8.01536C12.8006 7.61324 12.5348 7.22707 12.1327 7.15281L10.3668 6.82671L8.43917 4.89913C8.23615 4.69611 7.9457 4.63381 7.68902 4.71224C7.66456 4.69542 7.63969 4.67913 7.61444 4.66338Z" fill="url(#paint0_linear_2341_51967)"/>
<defs>
<linearGradient id="paint0_linear_2341_51967" x1="3.14062" y1="7.9999" x2="12.7388" y2="7.9999" gradientUnits="userSpaceOnUse">
<stop stop-color="#22F779"/>
<stop offset="1" stop-color="#75FFA5"/>
</linearGradient>
</defs>
</svg>
