<svg width="16" height="16" viewBox="0 0 16 16" fill="none" xmlns="http://www.w3.org/2000/svg">
<path d="M0.666016 10.3694V10.0627C0.666016 8.32884 2.07161 6.92324 3.8055 6.92324C4.12433 6.92324 4.41148 6.73037 4.53207 6.43522L5.29127 4.57705C5.59855 3.82497 6.33026 3.3335 7.1427 3.3335H11.3266C12.3524 3.3335 13.212 4.1097 13.3162 5.13027L13.4414 6.35589C13.4743 6.67815 13.7457 6.92324 14.0696 6.92324C14.7672 6.92324 15.3327 7.48872 15.3327 8.18627V10.2309C15.3327 10.7832 14.885 11.2309 14.3327 11.2309H1.52755C1.05174 11.2309 0.666016 10.8452 0.666016 10.3694Z" fill="url(#paint0_linear_2341_51933)"/>
<path fill-rule="evenodd" clip-rule="evenodd" d="M0.677266 9.79489C0.669816 9.88313 0.666016 9.9724 0.666016 10.0626V10.3692C0.666016 10.845 1.05174 11.2308 1.52755 11.2308H14.3327C14.885 11.2308 15.3327 10.7831 15.3327 10.2308V9.79489H0.677266ZM5.65188 4C5.50221 4.16728 5.37932 4.36139 5.29127 4.57689L4.53207 6.43506C4.41148 6.73021 4.12433 6.92308 3.8055 6.92308C3.80182 6.92308 3.79813 6.92308 3.79444 6.9231H8.00026V4H5.65188Z" fill="#13D168"/>
<ellipse cx="4.70052" cy="10.872" rx="1.83333" ry="1.79487" fill="#018644"/>
<ellipse cx="12.0326" cy="10.872" rx="1.83333" ry="1.79487" fill="#018644"/>
<rect x="9.33203" y="4" width="2.66667" height="2.93333" fill="#13D168"/>
<defs>
<linearGradient id="paint0_linear_2341_51933" x1="0.666016" y1="7.28221" x2="15.3327" y2="7.28221" gradientUnits="userSpaceOnUse">
<stop stop-color="#22F779"/>
<stop offset="1" stop-color="#75FFA5"/>
</linearGradient>
</defs>
</svg>
