<svg width="16" height="16" viewBox="0 0 16 16" fill="none" xmlns="http://www.w3.org/2000/svg">
<path d="M1.66602 4.00016C1.66602 2.5274 2.85992 1.3335 4.33268 1.3335H5.63427C7.10703 1.3335 8.30094 2.5274 8.30094 4.00016V8.31762C8.30094 9.79038 7.10703 10.9843 5.63427 10.9843H4.33268C2.85992 10.9843 1.66602 9.79038 1.66602 8.31762V4.00016Z" fill="url(#paint0_linear_2341_51875)"/>
<path d="M7.69776 4.00016C7.69776 2.5274 8.89167 1.3335 10.3644 1.3335H11.666C13.1388 1.3335 14.3327 2.5274 14.3327 4.00016V8.31762C14.3327 9.79038 13.1388 10.9843 11.666 10.9843H10.3644C8.89167 10.9843 7.69776 9.79038 7.69776 8.31762V4.00016Z" fill="#13D168"/>
<path d="M4.61526 4.19858C4.61526 3.94873 4.8178 3.74619 5.06764 3.74619C5.31748 3.74619 5.52002 3.94873 5.52002 4.19858V5.84841L6.18435 5.18408C6.36102 5.00741 6.64745 5.00741 6.82412 5.18408C7.00078 5.36074 7.00078 5.64717 6.82412 5.82384L5.52002 7.12793V8.26111L6.18435 7.59677C6.36102 7.42011 6.64745 7.42011 6.82412 7.59677C7.00078 7.77344 7.00078 8.05987 6.82412 8.23654L5.52002 9.54063V13.5478C5.52002 13.7976 5.31748 14.0002 5.06764 14.0002C4.8178 14.0002 4.61526 13.7976 4.61526 13.5478V9.72618L3.12562 8.23654C2.94895 8.05987 2.94895 7.77344 3.12562 7.59677C3.30228 7.42011 3.58871 7.42011 3.76538 7.59677L4.61526 8.44665V7.31348L3.12562 5.82384C2.94895 5.64717 2.94895 5.36074 3.12562 5.18408C3.30228 5.00741 3.58871 5.00741 3.76538 5.18408L4.61526 6.03395V4.19858Z" fill="#07AB56"/>
<path d="M10.6472 4.1986C10.6472 3.94875 10.8497 3.74621 11.0996 3.74621C11.3494 3.74621 11.552 3.94875 11.552 4.1986V5.84843L12.2163 5.18409C12.393 5.00743 12.6794 5.00743 12.8561 5.18409C13.0327 5.36076 13.0327 5.64719 12.8561 5.82386L11.552 7.12795V8.26113L12.2163 7.59679C12.393 7.42013 12.6794 7.42013 12.8561 7.59679C13.0327 7.77346 13.0327 8.05989 12.8561 8.23656L11.552 9.54065V13.5478C11.552 13.7976 11.3494 14.0002 11.0996 14.0002C10.8497 14.0002 10.6472 13.7976 10.6472 13.5478V9.7262L9.15756 8.23656C8.98089 8.05989 8.98089 7.77346 9.15755 7.59679C9.33422 7.42013 9.62065 7.42013 9.79732 7.59679L10.6472 8.44667V7.3135L9.15756 5.82386C8.98089 5.64719 8.98089 5.36076 9.15755 5.18409C9.33422 5.00743 9.62065 5.00743 9.79732 5.18409L10.6472 6.03397V4.1986Z" fill="#07AB56"/>
<defs>
<linearGradient id="paint0_linear_2341_51875" x1="1.66602" y1="7.66684" x2="14.3327" y2="7.66684" gradientUnits="userSpaceOnUse">
<stop stop-color="#22F779"/>
<stop offset="1" stop-color="#75FFA5"/>
</linearGradient>
</defs>
</svg>
