<svg width="16" height="16" viewBox="0 0 16 16" fill="none" xmlns="http://www.w3.org/2000/svg">
<path d="M2.7677 3.96515C2.70857 3.49215 2.99153 3.04317 3.44375 2.89243L7.80433 1.43891C8.0096 1.37048 8.23152 1.37048 8.43679 1.43891L12.7974 2.89243C13.2496 3.04317 13.5325 3.49215 13.4734 3.96515L12.9052 8.51099C12.7513 9.7424 12.1449 10.8726 11.204 11.6817L10.7287 12.0905C9.22909 13.3802 7.01203 13.3802 5.5124 12.0905L5.03712 11.6817C4.09622 10.8726 3.48986 9.7424 3.33593 8.51099L2.7677 3.96515Z" fill="#13D168"/>
<path d="M3.97573 4.76142C3.91938 4.28944 4.20307 3.84302 4.6543 3.69358L7.80695 2.64952C8.01109 2.58192 8.23157 2.58192 8.43571 2.64952L11.5884 3.69358C12.0396 3.84302 12.3233 4.28944 12.2669 4.76142L11.9015 7.82289C11.7447 9.136 11.0741 10.3335 10.0365 11.1534L9.36124 11.6869C8.63439 12.2612 7.60827 12.2612 6.88142 11.6869L6.20617 11.1534C5.16854 10.3335 4.49797 9.136 4.34121 7.82289L3.97573 4.76142Z" fill="url(#paint0_linear_2341_52000)"/>
<path fill-rule="evenodd" clip-rule="evenodd" d="M10.6548 5.69594C10.8145 5.85562 10.8145 6.11452 10.6548 6.2742L8.14103 8.78795C8.0886 8.84038 8.02547 8.8756 7.95867 8.8936C7.82172 8.93095 7.66913 8.89584 7.56157 8.78827L5.97133 7.19803C5.81164 7.03835 5.81164 6.77945 5.97133 6.61976C6.13101 6.46008 6.38991 6.46008 6.5496 6.61976L7.85114 7.9213L10.0765 5.69594C10.2362 5.53625 10.4951 5.53625 10.6548 5.69594Z" fill="#07AB56"/>
<defs>
<linearGradient id="paint0_linear_2341_52000" x1="3.87891" y1="7.606" x2="12.3638" y2="7.606" gradientUnits="userSpaceOnUse">
<stop stop-color="#22F779"/>
<stop offset="1" stop-color="#75FFA5"/>
</linearGradient>
</defs>
</svg>
