<svg width="16" height="16" viewBox="0 0 16 16" fill="none" xmlns="http://www.w3.org/2000/svg">
<path fill-rule="evenodd" clip-rule="evenodd" d="M5.28353 1.81848L4.82699 2.00017L1.73039 5.09676C1.35278 5.47437 1.3385 6.08206 1.69796 6.47699L6.82977 12.1152C7.16164 12.4798 7.55807 12.7799 7.99906 13.0004L9.99854 14.0002L10.0005 13.9962V13.9998H13.6672C14.2195 13.9998 14.6672 13.5521 14.6672 12.9998V12.6665C14.6672 11.1099 13.7781 9.76096 12.48 9.09987L12.6657 8.73314L12.5154 8.47283C11.9524 7.49774 11.5528 6.43708 11.3323 5.33291L11.1271 4.10126C11.057 3.68109 10.6531 3.40227 10.2354 3.48575L9.58388 3.61597C9.41659 3.64941 9.24642 3.66629 9.07582 3.66638L8.75903 3.66655C8.27197 3.66681 7.80478 3.47344 7.46037 3.12904C7.37475 3.04342 7.29782 2.94953 7.23069 2.84876L6.93945 2.41155C6.76185 2.14492 6.50044 1.94512 6.19655 1.84372L6.05533 1.79659C5.80354 1.71257 5.53015 1.72033 5.28353 1.81848Z" fill="url(#paint0_linear_2341_51916)"/>
<path fill-rule="evenodd" clip-rule="evenodd" d="M2.40906 4.41797L7.90233 10.5216C8.18732 10.8383 8.52107 11.1074 8.89095 11.3187L9.7436 11.8059C10.348 12.1513 11.032 12.333 11.7282 12.333H14.6535C14.6626 12.4429 14.6672 12.5541 14.6672 12.6663V12.9997C14.6672 13.552 14.2195 13.9997 13.6672 13.9997H10.0005V13.9961L9.99854 14L7.99906 13.0003C7.55807 12.7798 7.16164 12.4797 6.82977 12.1151L1.69796 6.47686C1.3385 6.08193 1.35278 5.47425 1.73039 5.09663L2.40906 4.41797Z" fill="#13D168"/>
<rect x="8.66602" y="5.6665" width="3.33333" height="1" rx="0.5" fill="#07AB56"/>
<rect x="9.33203" y="7.6665" width="3.33333" height="1" rx="0.5" fill="#07AB56"/>
<path fill-rule="evenodd" clip-rule="evenodd" d="M5.23828 1.8357C5.48415 2.50185 7.16134 4.6664 8.66556 4.6664C9.84292 4.6664 10.5959 4.48959 11.1588 4.30325L11.1251 4.10126C11.0551 3.68109 10.6511 3.40227 10.2334 3.48575L9.58191 3.61597C9.41462 3.64941 9.24445 3.66629 9.07385 3.66638L8.75706 3.66655C8.27 3.66681 7.80281 3.47344 7.4584 3.12904C7.37278 3.04342 7.29585 2.94953 7.22872 2.84876L6.93748 2.41155C6.75988 2.14492 6.49847 1.94512 6.19458 1.84372L6.05336 1.79659C5.80157 1.71257 5.52818 1.72033 5.28156 1.81848L5.23828 1.8357Z" fill="#13D168"/>
<defs>
<linearGradient id="paint0_linear_2341_51916" x1="1.4375" y1="7.86947" x2="14.6672" y2="7.86947" gradientUnits="userSpaceOnUse">
<stop stop-color="#22F779"/>
<stop offset="1" stop-color="#75FFA5"/>
</linearGradient>
</defs>
</svg>
