<svg width="24" height="24" viewBox="0 0 24 24" fill="none" xmlns="http://www.w3.org/2000/svg">
<path fill-rule="evenodd" clip-rule="evenodd" d="M9.74417 18.1797C9.71207 18.2197 9.67748 18.2583 9.64041 18.2953L6.91832 21.0174C6.36509 21.5707 5.46814 21.5707 4.91492 21.0174C4.36169 20.4642 4.36169 19.5673 4.91492 19.014L7.48158 16.4474L8.41846 12.9509C8.62692 12.1729 9.42657 11.7112 10.2045 11.9197C10.9825 12.1281 11.4442 12.9278 11.2357 13.7058L10.2407 17.4191C10.1571 17.7311 9.97843 17.9923 9.74417 18.1797Z" fill="#13D168"/>
<path fill-rule="evenodd" clip-rule="evenodd" d="M12.0528 6.87164C13.0449 6.54014 13.76 5.60357 13.76 4.49998C13.76 3.11928 12.6407 2 11.26 2C9.87927 2 8.75998 3.11928 8.75998 4.49998C8.75998 5.34373 9.17797 6.08985 9.81817 6.54257H9.59976C9.37521 6.52125 9.1421 6.56707 8.93188 6.68844L5.47173 8.68615C5.02916 8.8375 4.71094 9.25703 4.71094 9.75089L4.71094 13.3342C4.71094 13.9555 5.21461 14.4592 5.83593 14.4592C6.45725 14.4592 6.96092 13.9555 6.96092 13.3342L6.96092 10.4244L8.70112 9.41972L8.24917 13.4873C8.23946 13.5747 8.25279 13.6588 8.28405 13.734C8.33058 14.0275 8.46693 14.3094 8.6931 14.5356L11.7863 17.6288L12.6676 20.9179C12.876 21.6958 13.6757 22.1575 14.4537 21.9491C15.2316 21.7406 15.6933 20.9409 15.4849 20.163L14.5251 16.5811C14.4828 16.4232 14.4161 16.2783 14.3302 16.1494C14.2623 16.0156 14.1724 15.8902 14.0606 15.7783L12.3248 14.0425H12.3541L12.7357 10.608L14.1597 12.032C14.1758 12.0481 14.1923 12.0636 14.2091 12.0785C14.3576 12.2149 14.545 12.3124 14.7578 12.3517L17.7966 12.9129C18.3998 13.0243 18.9791 12.6256 19.0905 12.0224C19.2018 11.4193 18.8032 10.84 18.2 10.7286L15.5487 10.239L12.6578 7.34811C12.5756 7.26596 12.4839 7.19917 12.3863 7.14774C12.2857 7.04431 12.1739 6.95159 12.0528 6.87164Z" fill="url(#paint0_linear_1822_39554)"/>
<defs>
<linearGradient id="paint0_linear_1822_39554" x1="4.71094" y1="11.9996" x2="19.1091" y2="11.9996" gradientUnits="userSpaceOnUse">
<stop stop-color="#22F779"/>
<stop offset="1" stop-color="#75FFA5"/>
</linearGradient>
</defs>
</svg>
