<svg width="16" height="16" viewBox="0 0 16 16" fill="none" xmlns="http://www.w3.org/2000/svg">
<path fill-rule="evenodd" clip-rule="evenodd" d="M7 8.66699C6.44772 8.66699 6 9.11471 6 9.66699V10.667H5C4.44772 10.667 4 11.1147 4 11.667V12.5003H3C2.44772 12.5003 2 12.948 2 13.5003V13.8337C2 14.3859 2.44772 14.8337 3 14.8337H13C13.5523 14.8337 14 14.3859 14 13.8337V13.667V12.5003V11.667V9.66699C14 9.11471 13.5523 8.66699 13 8.66699H7Z" fill="url(#paint0_linear_2341_51878)"/>
<rect x="12" y="2" width="1.33333" height="6.66667" fill="#C7FFD7"/>
<path d="M4.51823 3.44434C4.29671 3.11206 4.53491 2.66699 4.93426 2.66699H8.83333C9.10948 2.66699 9.33333 2.89085 9.33333 3.16699V6.16699C9.33333 6.44313 9.10948 6.66699 8.83333 6.66699H4.93426C4.53491 6.66699 4.29672 6.22192 4.51823 5.88964L5.14843 4.94434C5.2604 4.77639 5.2604 4.55759 5.14843 4.38964L4.51823 3.44434Z" fill="#008545"/>
<path d="M6.66602 1.8335C6.66602 1.55735 6.88987 1.3335 7.16602 1.3335H12.8327C13.1088 1.3335 13.3327 1.55735 13.3327 1.8335V5.3335H7.16602C6.88987 5.3335 6.66602 5.10964 6.66602 4.8335V1.8335Z" fill="#07AB56"/>
<defs>
<linearGradient id="paint0_linear_2341_51878" x1="2" y1="11.7503" x2="14" y2="11.7503" gradientUnits="userSpaceOnUse">
<stop stop-color="#22F779"/>
<stop offset="1" stop-color="#75FFA5"/>
</linearGradient>
</defs>
</svg>
