<svg width="16" height="16" viewBox="0 0 16 16" fill="none" xmlns="http://www.w3.org/2000/svg">
<path fill-rule="evenodd" clip-rule="evenodd" d="M6.84785 3C5.9005 3 5.0831 3.66465 4.88989 4.59209L4.8049 5H4C2.89543 5 2 5.89543 2 7V11C2 12.1046 2.89543 13 4 13H12C13.1046 13 14 12.1046 14 11V7C14 5.89543 13.1046 5 12 5H11.1938L11.1088 4.59209C10.9156 3.66465 10.0982 3 9.15085 3H6.84785Z" fill="url(#paint0_linear_2341_51897)"/>
<rect x="11.334" y="7.6665" width="1.33333" height="1.33333" transform="rotate(-90 11.334 7.6665)" fill="#07AB56"/>
<circle cx="8.00065" cy="9.00016" r="2.66667" fill="#07AB56"/>
<circle cx="8" cy="9" r="1.5" fill="#13D168"/>
<defs>
<linearGradient id="paint0_linear_2341_51897" x1="2" y1="8" x2="14" y2="8" gradientUnits="userSpaceOnUse">
<stop stop-color="#22F779"/>
<stop offset="1" stop-color="#75FFA5"/>
</linearGradient>
</defs>
</svg>
