<svg width="16" height="16" viewBox="0 0 16 16" fill="none" xmlns="http://www.w3.org/2000/svg">
<path d="M4.43987 8.87101L2.33081 12.1518C2.1882 12.3736 2.34748 12.6653 2.61121 12.6653H7.3901C7.65382 12.6653 7.8131 12.3736 7.67049 12.1518L5.56144 8.87101C5.29901 8.4628 4.70229 8.4628 4.43987 8.87101Z" fill="#07AB56"/>
<path d="M8.5124 6.00055L5.24413 11.6655C4.98772 12.11 5.30849 12.6654 5.82159 12.6654H13.513C14.0261 12.6654 14.3469 12.11 14.0905 11.6655L10.8222 6.00055C10.3091 5.11117 9.02551 5.11117 8.5124 6.00055Z" fill="url(#paint0_linear_2341_51872)"/>
<path d="M4.00065 3.3335C3.44837 3.3335 3.00065 3.78121 3.00065 4.3335C3.00065 4.45037 3.0207 4.56257 3.05755 4.66683H2.16732C1.70708 4.66683 1.33398 5.03993 1.33398 5.50016C1.33398 5.9604 1.70708 6.3335 2.16732 6.3335H3.83398C4.29422 6.3335 4.66732 5.9604 4.66732 5.50016C4.66732 5.44308 4.66158 5.38735 4.65065 5.3335H6.66732C7.2196 5.3335 7.66732 4.88578 7.66732 4.3335C7.66732 3.78121 7.2196 3.3335 6.66732 3.3335H4.00065Z" fill="#13D168"/>
<defs>
<linearGradient id="paint0_linear_2341_51872" x1="1.33398" y1="7.99943" x2="14.1807" y2="7.99943" gradientUnits="userSpaceOnUse">
<stop stop-color="#22F779"/>
<stop offset="1" stop-color="#75FFA5"/>
</linearGradient>
</defs>
</svg>
