<svg width="16" height="16" viewBox="0 0 16 16" fill="none" xmlns="http://www.w3.org/2000/svg">
<path d="M1.93593 5.44513C2.49253 3.83226 4.01091 2.75 5.71711 2.75H5.79935V10.25L3.59935 11.75C2.69376 11.75 1.85901 11.2602 1.4173 10.4696L1.07101 9.84984C0.813333 9.38866 0.764543 8.83949 0.936878 8.34011L1.93593 5.44513Z" fill="#13D168"/>
<path d="M14.0621 5.44513C13.5055 3.83226 11.9871 2.75 10.2809 2.75H10.1987V10.25L12.3987 11.75C13.3043 11.75 14.139 11.2602 14.5807 10.4696L14.927 9.84984C15.1847 9.38866 15.2335 8.83949 15.0612 8.34011L14.0621 5.44513Z" fill="#13D168"/>
<path d="M4.39576 4.1647C4.87553 2.86396 6.11506 2 7.50146 2H8.49854C9.88494 2 11.1245 2.86396 11.6042 4.1647L12.9884 7.91745C13.3187 8.81274 13.3196 9.79631 12.9911 10.6922C12.5857 11.7978 11.7159 12.6701 10.6114 13.0785L9.53043 13.4783C8.53818 13.8165 7.46182 13.8165 6.46956 13.4783L5.38861 13.0785C4.28412 12.6701 3.41428 11.7978 3.00889 10.6922C2.68038 9.79631 2.68133 8.81274 3.01156 7.91745L4.39576 4.1647Z" fill="url(#paint0_linear_2341_51906)"/>
<ellipse cx="6.16693" cy="7.25" rx="0.733333" ry="0.75" fill="#07AB56"/>
<ellipse cx="9.83294" cy="7.25" rx="0.733333" ry="0.75" fill="#07AB56"/>
<path d="M6.80487 9.31411C6.83677 9.13434 6.97261 8.99081 7.15035 8.94908L7.54099 8.85735C7.84169 8.78674 8.15466 8.78674 8.45536 8.85735L8.846 8.94908C9.02374 8.99081 9.15959 9.13434 9.19149 9.31411C9.24737 9.62903 9.13457 9.95024 8.89406 10.1611L8.36484 10.625H7.63151L7.10229 10.1611C6.86178 9.95024 6.74899 9.62903 6.80487 9.31411Z" fill="#07AB56"/>
<path d="M7.63281 10.625H8.36615V13.7H7.63281V10.625Z" fill="#07AB56"/>
<defs>
<linearGradient id="paint0_linear_2341_51906" x1="2.5" y1="8" x2="13.8667" y2="8" gradientUnits="userSpaceOnUse">
<stop stop-color="#22F779"/>
<stop offset="1" stop-color="#75FFA5"/>
</linearGradient>
</defs>
</svg>
