<svg width="24" height="24" viewBox="0 0 24 24" fill="none" xmlns="http://www.w3.org/2000/svg">
<path d="M1 15.8462V14.3846C1 12.1755 2.79086 10.3846 5 10.3846H5.82833C6.23454 10.3846 6.6004 10.1389 6.75404 9.76284L8.19192 6.24356C8.4992 5.49147 9.23091 5 10.0433 5H17.8939C18.9198 5 19.7793 5.7762 19.8835 6.79677L20.1631 9.5336C20.2124 10.017 20.6196 10.3846 21.1054 10.3846C22.1518 10.3846 23 11.2328 23 12.2792V15.8462C23 16.3984 22.5523 16.8462 22 16.8462H2C1.44772 16.8462 1 16.3984 1 15.8462Z" fill="url(#paint0_linear_1822_39559)"/>
<path fill-rule="evenodd" clip-rule="evenodd" d="M1 14.6923V15.8462C1 16.3984 1.44772 16.8462 2 16.8462H22C22.5523 16.8462 23 16.3984 23 15.8462V14.6923H1ZM8.31122 6C8.26641 6.07767 8.22648 6.15897 8.19192 6.24356L6.75404 9.76284C6.6004 10.1389 6.23454 10.3846 5.82833 10.3846H5C4.99494 10.3846 4.98989 10.3846 4.98484 10.3846H12.0004L12.0004 6H8.31122Z" fill="#13D168"/>
<ellipse cx="7.05078" cy="16.3075" rx="2.75" ry="2.69231" fill="#018644"/>
<ellipse cx="18.0508" cy="16.3075" rx="2.75" ry="2.69231" fill="#018644"/>
<rect x="14" y="6" width="4" height="4.4" fill="#13D168"/>
<defs>
<linearGradient id="paint0_linear_1822_39559" x1="1" y1="10.9231" x2="23" y2="10.9231" gradientUnits="userSpaceOnUse">
<stop stop-color="#22F779"/>
<stop offset="1" stop-color="#75FFA5"/>
</linearGradient>
</defs>
</svg>
