<svg width="24" height="24" viewBox="0 0 24 24" fill="none" xmlns="http://www.w3.org/2000/svg">
<path fill-rule="evenodd" clip-rule="evenodd" d="M19.0093 3.43558L19.1641 3.59038C19.2473 3.67358 19.2473 3.80847 19.1641 3.89167L15.8405 7.21526C15.6169 7.43885 15.6169 7.80136 15.8405 8.02495C16.0504 8.23486 16.386 8.24951 16.6134 8.0587L20.2662 4.99372C20.3589 4.91594 20.4956 4.92191 20.5812 5.00748L20.7637 5.18993C20.8492 5.27549 20.8552 5.41227 20.7774 5.50497L17.7124 9.15775C17.5216 9.38516 17.5363 9.7207 17.7462 9.93061C17.9698 10.1542 18.3323 10.1542 18.5559 9.93061L21.8795 6.60702C21.9627 6.52383 22.0976 6.52383 22.1808 6.60702L22.3356 6.76182C22.4925 6.91874 22.505 7.16904 22.3644 7.34079L19.9952 10.2365C18.8631 11.6202 17.3002 12.5847 15.5559 12.9763L13.5732 13.4214C12.7396 14.2371 11.9593 15.1069 11.2375 16.0255L8.33588 19.7185C7.9975 20.1492 7.56795 20.4996 7.07807 20.7445L6.80248 20.8823C6.25306 21.157 5.5895 21.0493 5.15514 20.615C4.72079 20.1806 4.61311 19.5171 4.88782 18.9677L5.02562 18.6921C5.27056 18.2022 5.62094 17.7726 6.05161 17.4342L9.74463 14.5326C10.6638 13.8104 11.5341 13.0295 12.3503 12.1953L12.7948 10.2153C13.1864 8.47093 14.151 6.90801 15.5346 5.77593L18.4303 3.40671C18.6021 3.26618 18.8524 3.27866 19.0093 3.43558Z" fill="#13D168"/>
<path fill-rule="evenodd" clip-rule="evenodd" d="M2.66687 4.66663C2.20423 5.12926 1.96152 5.76765 1.99994 6.42078L2.07083 7.62585C2.14243 8.8431 2.65825 9.99174 3.52046 10.854L3.94379 11.2773C5.42635 12.7598 7.52879 13.4435 9.59979 13.1165L9.79927 13.085C10.9904 14.1443 12.0857 15.3081 13.0716 16.563L15.9733 20.256C16.3117 20.6867 16.7412 21.0371 17.2311 21.282L17.5067 21.4198C18.0561 21.6945 18.7197 21.5868 19.154 21.1525C19.5884 20.7181 19.6961 20.0546 19.4214 19.5051L19.2836 19.2295C19.0386 18.7397 18.6882 18.3101 18.2576 17.9717L14.5646 15.0701C13.3093 14.0838 12.1452 12.9882 11.0856 11.7966L11.1168 11.5996C11.4438 9.52856 10.7601 7.42612 9.27752 5.94356L8.85419 5.52022C7.99198 4.65801 6.84333 4.14219 5.62609 4.07059L4.42101 3.99971C3.76788 3.96129 3.1295 4.204 2.66687 4.66663Z" fill="url(#paint0_linear_1822_39557)"/>
<defs>
<linearGradient id="paint0_linear_1822_39557" x1="8.24326" y1="15.5768" x2="13.577" y2="10.243" gradientUnits="userSpaceOnUse">
<stop stop-color="#22F779"/>
<stop offset="1" stop-color="#75FFA5"/>
</linearGradient>
</defs>
</svg>
