<svg width="68" height="12" viewBox="0 0 68 12" fill="none" xmlns="http://www.w3.org/2000/svg">
<path d="M0 6C0 2.68629 2.68629 0 6 0H62C65.3137 0 68 2.68629 68 6C68 9.31371 65.3137 12 62 12H6C2.68629 12 0 9.31371 0 6Z" fill="#13D168"/>
<path d="M8 8.5L4 6L8 3.5L8 8.5Z" fill="white"/>
<path d="M16 8.5L12 6L16 3.5L16 8.5Z" fill="white"/>
<path d="M24 8.5L20 6L24 3.5L24 8.5Z" fill="white"/>
<path d="M32 8.5L28 6L32 3.5L32 8.5Z" fill="white"/>
<path d="M40 8.5L36 6L40 3.5L40 8.5Z" fill="white"/>
<path d="M48 8.5L44 6L48 3.5L48 8.5Z" fill="white"/>
<path d="M56 8.5L52 6L56 3.5L56 8.5Z" fill="white"/>
<path d="M64 8.5L60 6L64 3.5L64 8.5Z" fill="white"/>
</svg>
