<svg width="48" height="48" viewBox="0 0 48 48" fill="none" xmlns="http://www.w3.org/2000/svg">
<path fill-rule="evenodd" clip-rule="evenodd" d="M28.639 17.3403C31.3276 20.0288 31.6994 24.1568 29.7544 27.2435L32.4802 29.9692C33.1736 30.6625 33.1736 31.7867 32.4802 32.48C31.7869 33.1733 30.6627 33.1733 29.9693 32.48L27.2436 29.7543C24.1568 31.6993 20.0287 31.3275 17.3401 28.6389C14.22 25.5189 14.22 20.4603 17.3401 17.3403C20.4602 14.2202 25.5189 14.2202 28.639 17.3403ZM23.0995 28.6129C26.0819 28.6129 28.4995 26.1952 28.4995 23.2129C28.4995 20.2305 26.0819 17.8128 23.0995 17.8128C20.1171 17.8128 17.6994 20.2305 17.6994 23.2129C17.6994 26.1952 20.1171 28.6129 23.0995 28.6129Z" fill="#F2F2F2"/>
</svg>
