<svg width="24" height="24" viewBox="0 0 24 24" fill="none" xmlns="http://www.w3.org/2000/svg">
<path fill-rule="evenodd" clip-rule="evenodd" d="M16.639 5.34027C19.3276 8.02881 19.6994 12.1568 17.7544 15.2435L20.4802 17.9692C21.1736 18.6625 21.1736 19.7867 20.4802 20.48C19.7869 21.1733 18.6627 21.1733 17.9693 20.48L15.2436 17.7543C12.1568 19.6993 8.02871 19.3275 5.34008 16.6389C2.21997 13.5189 2.21997 8.4603 5.34008 5.34027C8.46018 2.22024 13.5189 2.22024 16.639 5.34027ZM11.0995 16.6129C14.0819 16.6129 16.4995 14.1952 16.4995 11.2129C16.4995 8.2305 14.0819 5.81282 11.0995 5.81282C8.11711 5.81282 5.69942 8.2305 5.69942 11.2129C5.69942 14.1952 8.11711 16.6129 11.0995 16.6129Z" fill="#F2F2F2"/>
</svg>
