<svg width="24" height="24" viewBox="0 0 24 24" fill="none" xmlns="http://www.w3.org/2000/svg">
<path d="M9.74394 13.856L3.87278 10.5534C3.13182 10.1367 3.21591 9.04403 4.01192 8.74553L19.9619 2.7643C20.7622 2.46417 21.5458 3.24148 21.2521 4.04421L15.2718 20.3903C14.9743 21.2035 13.8541 21.2799 13.4489 20.5146L10.1375 14.2597C10.0477 14.0901 9.91111 13.95 9.74394 13.856Z" fill="url(#paint0_linear_2337_62121)"/>
<path opacity="0.8" d="M17.3536 7.35355C17.5488 7.15829 17.5488 6.84171 17.3536 6.64645C17.1583 6.45118 16.8417 6.45118 16.6464 6.64645L17.3536 7.35355ZM10.3536 14.3536L17.3536 7.35355L16.6464 6.64645L9.64645 13.6464L10.3536 14.3536Z" fill="#005421"/>
<defs>
<linearGradient id="paint0_linear_2337_62121" x1="2" y1="0.548374" x2="17.6861" y2="18.0552" gradientUnits="userSpaceOnUse">
<stop stop-color="#00DE59"/>
<stop offset="1" stop-color="#73F6A7"/>
</linearGradient>
</defs>
</svg>
