<svg width="24" height="24" viewBox="0 0 24 24" fill="none" xmlns="http://www.w3.org/2000/svg">
<path fill-rule="evenodd" clip-rule="evenodd" d="M9.49653 3C9.49653 2.44772 9.94424 2 10.4965 2H13.0036C13.5559 2 14.0036 2.44772 14.0036 3V4.00495C14.6372 4.18643 15.2394 4.44252 15.7999 4.7631L16.5204 4.04255C16.9109 3.65203 17.5441 3.65203 17.9346 4.04255L19.7074 5.8153C20.0979 6.20582 20.0979 6.83899 19.7074 7.22951L18.9466 7.99034C19.2431 8.54084 19.4784 9.12927 19.6431 9.74647H20.75C21.3023 9.74647 21.75 10.1942 21.75 10.7465V13.2535C21.75 13.8058 21.3023 14.2535 20.75 14.2535H19.5625C19.3843 14.8357 19.1428 15.3902 18.846 15.909L19.7075 16.7705C20.098 17.161 20.098 17.7942 19.7075 18.1847L17.9348 19.9574C17.5442 20.348 16.9111 20.348 16.5205 19.9574L15.6188 19.0557C15.1104 19.3296 14.5695 19.5513 14.0036 19.7134V21C14.0036 21.5523 13.5559 22 13.0036 22H10.4965C9.94424 22 9.49653 21.5523 9.49653 21V19.7134C8.93051 19.5513 8.38965 19.3297 7.88114 19.0557L6.97946 19.9574C6.58894 20.348 5.95577 20.348 5.56525 19.9574L3.7925 18.1847C3.40198 17.7942 3.40198 17.161 3.7925 16.7705L4.65391 15.9091C4.35715 15.3902 4.11566 14.8357 3.93745 14.2535H2.75C2.19772 14.2535 1.75 13.8058 1.75 13.2535V10.7465C1.75 10.1942 2.19772 9.74647 2.75 9.74647H3.85677C4.02155 9.12925 4.25681 8.5408 4.55339 7.99028L3.79262 7.22951C3.4021 6.83899 3.40209 6.20582 3.79262 5.8153L5.56537 4.04255C5.95589 3.65203 6.58906 3.65203 6.97958 4.04255L7.7001 4.76307C8.26064 4.44247 8.86282 4.18637 9.49653 4.0049V3Z" fill="#F2F2F2"/>
<circle cx="11.7494" cy="11.859" r="3.38028" fill="#959595"/>
</svg>
