<svg width="16" height="16" viewBox="0 0 16 16" fill="none" xmlns="http://www.w3.org/2000/svg">
<path fill-rule="evenodd" clip-rule="evenodd" d="M6.33037 2.33325C6.33037 1.78097 6.77808 1.33325 7.33037 1.33325H8.33506C8.88734 1.33325 9.33506 1.78097 9.33506 2.33325V2.66988C9.7575 2.79087 10.1589 2.9616 10.5326 3.17532L10.7773 2.93065C11.1678 2.54013 11.801 2.54013 12.1915 2.93066L12.9019 3.64108C13.2924 4.03161 13.2924 4.66477 12.9019 5.05529L12.6304 5.32681C12.8281 5.69381 12.9849 6.0861 13.0948 6.49756H13.4993C14.0516 6.49756 14.4993 6.94528 14.4993 7.49756V8.50226C14.4993 9.05454 14.0516 9.50226 13.4993 9.50226H13.041C12.9222 9.89036 12.7612 10.26 12.5634 10.6059L12.902 10.9445C13.2925 11.3351 13.2925 11.9682 12.902 12.3587L12.1916 13.0692C11.801 13.4597 11.1679 13.4597 10.7773 13.0692L10.4119 12.7037C10.0729 12.8863 9.71237 13.0341 9.33506 13.1422V13.6666C9.33506 14.2189 8.88735 14.6666 8.33506 14.6666H7.33037C6.77808 14.6666 6.33037 14.2189 6.33037 13.6666V13.1422C5.95303 13.0341 5.59245 12.8864 5.25345 12.7037L4.88802 13.0692C4.4975 13.4597 3.86433 13.4597 3.47381 13.0692L2.76338 12.3587C2.37286 11.9682 2.37286 11.3351 2.76338 10.9445L3.10196 10.606C2.90412 10.2601 2.74312 9.89038 2.62431 9.50226H2.16601C1.61373 9.50226 1.16602 9.05454 1.16602 8.50226V7.49756C1.16602 6.94528 1.61373 6.49756 2.16602 6.49756H2.57053C2.68038 6.08608 2.83722 5.69379 3.03494 5.32677L2.76346 5.05529C2.37294 4.66477 2.37294 4.03161 2.76346 3.64108L3.47389 2.93066C3.86441 2.54013 4.49758 2.54013 4.8881 2.93065L5.13275 3.1753C5.50644 2.96157 5.9079 2.79083 6.33037 2.66985V2.33325Z" fill="#F2F2F2"/>
<circle cx="7.8336" cy="7.90611" r="2.25352" fill="#959595"/>
</svg>
