<svg width="48" height="48" viewBox="0 0 48 48" fill="none" xmlns="http://www.w3.org/2000/svg">
<path fill-rule="evenodd" clip-rule="evenodd" d="M8 22H22V23H26H38H42C42 20.0153 40.3655 17.4123 37.9427 16.0374C37.4673 12.073 34.0925 9 30 9C29.1863 9 28.4009 9.1215 27.661 9.34734C26.213 7.89716 24.2113 7 22 7C18.1997 7 15.0183 9.64986 14.2027 13.2027C10.6499 14.0183 8 17.1997 8 21V22Z" fill="url(#paint0_linear_3556_122726)"/>
<path d="M18 38H32V41C32 41.5523 31.5523 42 31 42H19C18.4477 42 18 41.5523 18 41V38Z" fill="#37CC80"/>
<path d="M44 22.7007C44 31.592 36.7922 38.7998 27.9009 38.7998L22.0991 38.7998C13.2078 38.7998 6 31.592 6 22.7007C6 21.9823 6.58245 21.3998 7.30094 21.3998L42.6991 21.3998C43.4176 21.3998 44 21.9823 44 22.7007Z" fill="#00A553"/>
<defs>
<linearGradient id="paint0_linear_3556_122726" x1="8" y1="5.86702" x2="11.9759" y2="22.3772" gradientUnits="userSpaceOnUse">
<stop stop-color="#00DE59"/>
<stop offset="1" stop-color="#73F6A7"/>
</linearGradient>
</defs>
</svg>
