<svg width="48" height="48" viewBox="0 0 48 48" fill="none" xmlns="http://www.w3.org/2000/svg">
<rect x="11.1426" y="24.5713" width="25.7143" height="21.4286" fill="#00A553"/>
<rect x="9" y="11.7139" width="30" height="6.42857" rx="2" fill="#37CC80"/>
<path d="M11.1426 18.1426H15.4283V26.714C13.0614 26.714 11.1426 24.7952 11.1426 22.4283V18.1426Z" fill="#00A553"/>
<path d="M32.5723 18.1426H36.858V22.4283C36.858 24.7952 34.9392 26.714 32.5723 26.714V18.1426Z" fill="#00A553"/>
<path fill-rule="evenodd" clip-rule="evenodd" d="M24.0011 2C20.2469 2 16.9967 4.6106 16.188 8.27672L15.4297 11.7143H32.5725L31.8143 8.27672C31.0056 4.6106 27.7554 2 24.0011 2ZM32.5725 24.5714V18.1429H15.4297V24.5714C15.4297 29.3053 19.2672 33.1429 24.0011 33.1429C28.735 33.1429 32.5725 29.3053 32.5725 24.5714Z" fill="url(#paint0_linear_3556_122727)"/>
<path d="M22 18H26V25C26 25.5523 25.5523 26 25 26H23C22.4477 26 22 25.5523 22 25V18Z" fill="#00A553"/>
<path fill-rule="evenodd" clip-rule="evenodd" d="M14.4286 24.5713C14.9809 24.5713 15.4286 25.019 15.4286 25.5713V36.4286C15.4286 36.9809 15.8763 37.4286 16.4286 37.4286H18.7143C19.2666 37.4286 19.7143 37.8763 19.7143 38.4286V42.8571C19.7143 43.4094 19.2666 43.8571 18.7143 43.8571H11.5L11.4733 43.857H10C9.44772 43.857 9 43.4093 9 42.857V41.3571V37.4286V25.5713C9 25.019 9.44772 24.5713 10 24.5713H14.4286ZM33.5714 24.5714C33.0191 24.5714 32.5714 25.0191 32.5714 25.5714V36.4287C32.5714 36.981 32.1237 37.4287 31.5714 37.4287H29.2857C28.7334 37.4287 28.2857 37.8764 28.2857 38.4287V42.8573C28.2857 43.4096 28.7334 43.8573 29.2857 43.8573H36.5L36.5267 43.8571H38C38.5523 43.8571 39 43.4094 39 42.8571V41.3573V37.4287V25.5714C39 25.0191 38.5523 24.5714 38 24.5714H33.5714Z" fill="url(#paint1_linear_3556_122727)"/>
<defs>
<linearGradient id="paint0_linear_3556_122727" x1="15.4297" y1="-0.205258" x2="37.0495" y2="13.409" gradientUnits="userSpaceOnUse">
<stop stop-color="#00DE59"/>
<stop offset="1" stop-color="#73F6A7"/>
</linearGradient>
<linearGradient id="paint1_linear_3556_122727" x1="9" y1="23.2056" x2="21.6813" y2="45.7718" gradientUnits="userSpaceOnUse">
<stop stop-color="#00DE59"/>
<stop offset="1" stop-color="#73F6A7"/>
</linearGradient>
</defs>
</svg>
