<svg width="48" height="48" viewBox="0 0 48 48" fill="none" xmlns="http://www.w3.org/2000/svg">
<path d="M6.86882 13.3555C6.94323 12.5866 7.58938 12 8.36185 12H31.6382C32.4106 12 33.0568 12.5866 33.1312 13.3555L35.8409 41.3555C35.9262 42.2369 35.2334 43 34.3478 43H5.65217C4.76665 43 4.07385 42.2369 4.15914 41.3555L6.86882 13.3555Z" fill="url(#paint0_linear_3556_122723)"/>
<path fill-rule="evenodd" clip-rule="evenodd" d="M20.332 4C16.2827 4 13 7.28266 13 11.332V20.4211H15.2695V11.1094C15.2695 8.34579 17.5099 6.10547 20.2734 6.10547C23.037 6.10547 25.2773 8.34579 25.2773 11.1094V20.4211H27.6641V11.332C27.6641 7.28266 24.3814 4 20.332 4Z" fill="#00A553"/>
<path d="M24.1338 24.9944C24.2 24.4275 24.6804 24 25.2512 24H42.7488C43.3196 24 43.8 24.4275 43.8662 24.9944L45.8532 41.9944C45.9314 42.6629 45.4089 43.25 44.7358 43.25H23.2642C22.5911 43.25 22.0686 42.6629 22.1468 41.9944L24.1338 24.9944Z" fill="url(#paint1_linear_3556_122723)"/>
<path fill-rule="evenodd" clip-rule="evenodd" d="M33.9998 18.5996C31.0174 18.5996 28.5996 21.0174 28.5996 23.9998V29.9996H30.5504V23.9911C30.5504 22.1065 32.0782 20.5787 33.9627 20.5787C35.8473 20.5787 37.3751 22.1065 37.3751 23.9911V29.9996H39.4V23.9998C39.4 21.0174 36.9822 18.5996 33.9998 18.5996Z" fill="#37CC80"/>
<defs>
<linearGradient id="paint0_linear_3556_122723" x1="4" y1="9.80486" x2="21.9929" y2="28.9467" gradientUnits="userSpaceOnUse">
<stop stop-color="#00DE59"/>
<stop offset="1" stop-color="#73F6A7"/>
</linearGradient>
<linearGradient id="paint1_linear_3556_122723" x1="26" y1="26" x2="44" y2="42" gradientUnits="userSpaceOnUse">
<stop stop-color="#07944E"/>
<stop offset="1" stop-color="#00A553"/>
</linearGradient>
</defs>
</svg>
