<svg width="16" height="16" viewBox="0 0 16 16" fill="none" xmlns="http://www.w3.org/2000/svg">
<ellipse cx="12.6226" cy="6.63867" rx="2.25" ry="2.22222" transform="rotate(-90 12.6226 6.63867)" fill="#00A553"/>
<path fill-rule="evenodd" clip-rule="evenodd" d="M3 9.76416C2.04955 9.60424 1.33398 8.77822 1.33398 7.79208L1.33398 5.54093C1.33398 4.47616 2.16819 3.59808 3.23155 3.54355L7.33398 3.33317L10.8544 1.45127C10.9994 1.37374 11.1613 1.33317 11.3258 1.33317L11.6673 1.33317C12.2196 1.33317 12.6673 1.78089 12.6673 2.33317L12.6673 10.9998C12.6673 11.5521 12.2196 11.9998 11.6673 11.9998L11.3258 11.9998C11.1613 11.9998 10.9994 11.9593 10.8544 11.8817L7.33398 9.99984L6.33333 9.94852L6.33333 13.6665C6.33333 14.2188 5.88562 14.6665 5.33333 14.6665L4 14.6665C3.44771 14.6665 3 14.2188 3 13.6665L3 9.76416Z" fill="url(#paint0_linear_2375_67385)"/>
<defs>
<linearGradient id="paint0_linear_2375_67385" x1="0.531459" y1="14.6665" x2="11.7736" y2="6.31335" gradientUnits="userSpaceOnUse">
<stop stop-color="#00DE59"/>
<stop offset="1" stop-color="#73F6A7"/>
</linearGradient>
</defs>
</svg>
