<svg width="24" height="24" viewBox="0 0 24 24" fill="none" xmlns="http://www.w3.org/2000/svg">
<path fill-rule="evenodd" clip-rule="evenodd" d="M13.0091 17.9762C16.397 17.4854 19 14.5599 19 11.0243C19 7.1449 15.866 4 12 4C8.13401 4 5 7.1449 5 11.0243C5 14.5604 7.60375 17.4862 10.9923 17.9764L12.0007 20.0001L13.0091 17.9762Z" fill="#242424"/>
<path d="M12.8454 10.1339C12.3599 9.65585 12.0122 8.51232 11.9734 7.90186C11.8959 8.39786 11.613 9.53866 11.1015 10.1339C10.59 10.7291 9.41574 10.916 8.89258 10.9351C9.33824 10.9351 10.4156 11.1182 11.1596 11.8508C11.9037 12.5833 12.0122 13.5677 11.9734 13.9683C12.0316 13.5295 12.2873 12.4918 12.8454 11.8508C13.4034 11.2098 14.473 10.9732 14.938 10.9351C14.4924 10.8015 13.3685 10.6489 12.8454 10.1339Z" fill="#22F779"/>
</svg>
